<mxfile host="app.diagrams.net" modified="2024-04-26T03:55:31.542Z" agent="Mozilla/5.0 (Macintosh; Intel Mac OS X 10_15_7) AppleWebKit/537.36 (KHTML, like Gecko) Chrome/124.0.0.0 Safari/537.36" etag="SBQ3xw6LAqqndIeLOWjC" version="24.3.0" type="device">
  <diagram name="Page-1" id="_930X8MKYQAEljh_q5fa">
    <mxGraphModel dx="5243" dy="2833" grid="1" gridSize="10" guides="1" tooltips="1" connect="1" arrows="1" fold="1" page="1" pageScale="1" pageWidth="850" pageHeight="1100" math="0" shadow="0">
      <root>
        <mxCell id="0" />
        <mxCell id="1" parent="0" />
        <mxCell id="G-xqhIzx53ZrXlxMzzN0-1" value="Makhluk Hidup" style="whiteSpace=wrap;html=1;align=center;" parent="1" vertex="1">
          <mxGeometry x="160" y="40" width="100" height="40" as="geometry" />
        </mxCell>
        <mxCell id="G-xqhIzx53ZrXlxMzzN0-2" value="Kegiatan" style="whiteSpace=wrap;html=1;align=center;" parent="1" vertex="1">
          <mxGeometry x="160" y="120" width="100" height="40" as="geometry" />
        </mxCell>
        <mxCell id="G-xqhIzx53ZrXlxMzzN0-3" value="Objek / Benda" style="whiteSpace=wrap;html=1;align=center;" parent="1" vertex="1">
          <mxGeometry x="160" y="200" width="100" height="40" as="geometry" />
        </mxCell>
        <mxCell id="G-xqhIzx53ZrXlxMzzN0-4" value="Siapa saja yang berkaitan ?" style="whiteSpace=wrap;html=1;align=center;" parent="1" vertex="1">
          <mxGeometry x="290" y="40" width="340" height="40" as="geometry" />
        </mxCell>
        <mxCell id="G-xqhIzx53ZrXlxMzzN0-5" value="Kegiatan apa yang dilakukan ?" style="whiteSpace=wrap;html=1;align=center;" parent="1" vertex="1">
          <mxGeometry x="290" y="120" width="340" height="40" as="geometry" />
        </mxCell>
        <mxCell id="G-xqhIzx53ZrXlxMzzN0-6" value="Objek / Benda penunjang apa untuk kegiatan tersebut ?" style="whiteSpace=wrap;html=1;align=center;" parent="1" vertex="1">
          <mxGeometry x="290" y="200" width="340" height="40" as="geometry" />
        </mxCell>
        <mxCell id="G-xqhIzx53ZrXlxMzzN0-7" value="Aplikasi Service AC" style="whiteSpace=wrap;html=1;align=center;" parent="1" vertex="1">
          <mxGeometry x="200" y="280" width="400" height="40" as="geometry" />
        </mxCell>
        <mxCell id="G-xqhIzx53ZrXlxMzzN0-8" value="Pemilik bisnis dapat mencatat daftar perbaikan yang dilakukan oleh teknisi" style="whiteSpace=wrap;html=1;align=center;" parent="1" vertex="1">
          <mxGeometry x="200" y="340" width="400" height="120" as="geometry" />
        </mxCell>
        <mxCell id="G-xqhIzx53ZrXlxMzzN0-9" value="Pelanggan" style="whiteSpace=wrap;html=1;align=center;" parent="1" vertex="1">
          <mxGeometry x="680" y="40" width="100" height="40" as="geometry" />
        </mxCell>
        <mxCell id="G-xqhIzx53ZrXlxMzzN0-10" value="Teknisi" style="whiteSpace=wrap;html=1;align=center;" parent="1" vertex="1">
          <mxGeometry x="800" y="40" width="100" height="40" as="geometry" />
        </mxCell>
        <mxCell id="G-xqhIzx53ZrXlxMzzN0-11" value="perbaikan" style="whiteSpace=wrap;html=1;align=center;" parent="1" vertex="1">
          <mxGeometry x="740" y="120" width="100" height="40" as="geometry" />
        </mxCell>
        <mxCell id="G-xqhIzx53ZrXlxMzzN0-12" value="ac" style="whiteSpace=wrap;html=1;align=center;" parent="1" vertex="1">
          <mxGeometry x="740" y="200" width="100" height="40" as="geometry" />
        </mxCell>
        <mxCell id="G-xqhIzx53ZrXlxMzzN0-13" value="Pelanggan" style="whiteSpace=wrap;html=1;align=center;" parent="1" vertex="1">
          <mxGeometry x="1010" y="120" width="100" height="40" as="geometry" />
        </mxCell>
        <mxCell id="G-xqhIzx53ZrXlxMzzN0-14" value="nama : teks" style="ellipse;whiteSpace=wrap;html=1;align=center;" parent="1" vertex="1">
          <mxGeometry x="1150" y="60" width="100" height="40" as="geometry" />
        </mxCell>
        <mxCell id="G-xqhIzx53ZrXlxMzzN0-16" value="nomor hp : teks" style="ellipse;whiteSpace=wrap;html=1;align=center;" parent="1" vertex="1">
          <mxGeometry x="1150" y="120" width="100" height="40" as="geometry" />
        </mxCell>
        <mxCell id="G-xqhIzx53ZrXlxMzzN0-18" value="jenis kelamin : teks (P/L)" style="ellipse;whiteSpace=wrap;html=1;align=center;" parent="1" vertex="1">
          <mxGeometry x="1150" y="190" width="100" height="40" as="geometry" />
        </mxCell>
        <mxCell id="G-xqhIzx53ZrXlxMzzN0-20" value="saldo : numerik" style="ellipse;whiteSpace=wrap;html=1;align=center;" parent="1" vertex="1">
          <mxGeometry x="1010" y="190" width="100" height="40" as="geometry" />
        </mxCell>
        <mxCell id="G-xqhIzx53ZrXlxMzzN0-21" value="alamat : teks" style="ellipse;whiteSpace=wrap;html=1;align=center;" parent="1" vertex="1">
          <mxGeometry x="890" y="190" width="100" height="40" as="geometry" />
        </mxCell>
        <mxCell id="G-xqhIzx53ZrXlxMzzN0-23" value="email : teks" style="ellipse;whiteSpace=wrap;html=1;align=center;" parent="1" vertex="1">
          <mxGeometry x="1010" y="60" width="100" height="40" as="geometry" />
        </mxCell>
        <mxCell id="G-xqhIzx53ZrXlxMzzN0-24" value="password : teks" style="ellipse;whiteSpace=wrap;html=1;align=center;" parent="1" vertex="1">
          <mxGeometry x="890" y="120" width="100" height="40" as="geometry" />
        </mxCell>
        <mxCell id="G-xqhIzx53ZrXlxMzzN0-25" value="teks&lt;div&gt;numerik&lt;/div&gt;&lt;div&gt;tanggal&lt;/div&gt;&lt;div&gt;waktu&lt;/div&gt;&lt;div&gt;boolean ( true / false )&lt;/div&gt;&lt;div&gt;&lt;br&gt;&lt;/div&gt;&lt;div&gt;&lt;br&gt;&lt;/div&gt;&lt;div&gt;+62882000000&lt;/div&gt;" style="shape=note;size=20;whiteSpace=wrap;html=1;" parent="1" vertex="1">
          <mxGeometry x="1280" y="30" width="140" height="160" as="geometry" />
        </mxCell>
        <mxCell id="G-xqhIzx53ZrXlxMzzN0-26" value="Jenis Kelamin :&lt;div&gt;- numerik&lt;/div&gt;&lt;div&gt;- char&lt;/div&gt;&lt;div&gt;- enum&lt;/div&gt;" style="shape=note;size=20;whiteSpace=wrap;html=1;" parent="1" vertex="1">
          <mxGeometry x="990" y="250" width="100" height="100" as="geometry" />
        </mxCell>
        <mxCell id="G-xqhIzx53ZrXlxMzzN0-27" value="char :&lt;div&gt;satu karakter&lt;/div&gt;&lt;div&gt;a, b, 1, 2&lt;/div&gt;" style="shape=note;size=20;whiteSpace=wrap;html=1;" parent="1" vertex="1">
          <mxGeometry x="1130" y="250" width="100" height="100" as="geometry" />
        </mxCell>
        <mxCell id="G-xqhIzx53ZrXlxMzzN0-28" value="enum :&amp;nbsp;&lt;div&gt;memilih salah satu antara daftar yang sudah disiapkan&lt;/div&gt;&lt;div&gt;&lt;br&gt;&lt;/div&gt;&lt;div&gt;Jenis Kelamin :&lt;/div&gt;&lt;div&gt;- laki - laki&lt;/div&gt;&lt;div&gt;- perempuan&lt;/div&gt;" style="shape=note;size=20;whiteSpace=wrap;html=1;" parent="1" vertex="1">
          <mxGeometry x="1275" y="250" width="195" height="190" as="geometry" />
        </mxCell>
        <mxCell id="G-xqhIzx53ZrXlxMzzN0-29" value="numerik :&lt;div&gt;jenis kelamin :&lt;/div&gt;&lt;div&gt;- 1 : laki-laki&lt;/div&gt;&lt;div&gt;- 2 : perempuan&lt;/div&gt;" style="shape=note;size=20;whiteSpace=wrap;html=1;" parent="1" vertex="1">
          <mxGeometry x="1130" y="360" width="100" height="100" as="geometry" />
        </mxCell>
        <mxCell id="G-xqhIzx53ZrXlxMzzN0-30" value="status :&lt;div&gt;- 1: sudah dibayar&lt;/div&gt;&lt;div&gt;- 2: sedang proses&lt;/div&gt;&lt;div&gt;- sedang dikirim&lt;/div&gt;&lt;div&gt;- sampai tujuan&lt;/div&gt;" style="shape=note;size=20;whiteSpace=wrap;html=1;" parent="1" vertex="1">
          <mxGeometry x="970" y="370" width="120" height="110" as="geometry" />
        </mxCell>
        <mxCell id="G-xqhIzx53ZrXlxMzzN0-31" value="atribut entitas berupa manusia :&amp;nbsp;&lt;div&gt;- basic (email/password)&lt;/div&gt;&lt;div&gt;- ketika register app mengisi apa aja ?&lt;/div&gt;&lt;div&gt;- biodata&lt;/div&gt;" style="shape=note;size=20;whiteSpace=wrap;html=1;" parent="1" vertex="1">
          <mxGeometry x="1560" y="380" width="230" height="200" as="geometry" />
        </mxCell>
        <mxCell id="G-xqhIzx53ZrXlxMzzN0-32" value="ac" style="whiteSpace=wrap;html=1;align=center;" parent="1" vertex="1">
          <mxGeometry x="1290" y="590" width="100" height="40" as="geometry" />
        </mxCell>
        <mxCell id="G-xqhIzx53ZrXlxMzzN0-33" value="merk" style="ellipse;whiteSpace=wrap;html=1;align=center;" parent="1" vertex="1">
          <mxGeometry x="1260" y="530" width="100" height="40" as="geometry" />
        </mxCell>
        <mxCell id="G-xqhIzx53ZrXlxMzzN0-34" value="tipe" style="ellipse;whiteSpace=wrap;html=1;align=center;" parent="1" vertex="1">
          <mxGeometry x="1380" y="530" width="100" height="40" as="geometry" />
        </mxCell>
        <mxCell id="G-xqhIzx53ZrXlxMzzN0-35" value="ukuran" style="ellipse;whiteSpace=wrap;html=1;align=center;" parent="1" vertex="1">
          <mxGeometry x="1175" y="590" width="100" height="40" as="geometry" />
        </mxCell>
        <mxCell id="G-xqhIzx53ZrXlxMzzN0-36" value="harga" style="ellipse;whiteSpace=wrap;html=1;align=center;" parent="1" vertex="1">
          <mxGeometry x="1170" y="640" width="100" height="40" as="geometry" />
        </mxCell>
        <mxCell id="G-xqhIzx53ZrXlxMzzN0-37" value="nomor seri" style="ellipse;whiteSpace=wrap;html=1;align=center;" parent="1" vertex="1">
          <mxGeometry x="1322.5" y="490" width="100" height="40" as="geometry" />
        </mxCell>
        <mxCell id="G-xqhIzx53ZrXlxMzzN0-38" value="pk" style="ellipse;whiteSpace=wrap;html=1;align=center;" parent="1" vertex="1">
          <mxGeometry x="1410" y="590" width="100" height="40" as="geometry" />
        </mxCell>
        <mxCell id="G-xqhIzx53ZrXlxMzzN0-39" value="tahun pembuatan" style="ellipse;whiteSpace=wrap;html=1;align=center;" parent="1" vertex="1">
          <mxGeometry x="1150" y="540" width="100" height="40" as="geometry" />
        </mxCell>
        <mxCell id="G-xqhIzx53ZrXlxMzzN0-40" value="fitur" style="ellipse;whiteSpace=wrap;html=1;align=center;" parent="1" vertex="1">
          <mxGeometry x="1400" y="650" width="100" height="40" as="geometry" />
        </mxCell>
        <mxCell id="G-xqhIzx53ZrXlxMzzN0-41" value="garansi" style="ellipse;whiteSpace=wrap;html=1;align=center;" parent="1" vertex="1">
          <mxGeometry x="1275" y="650" width="100" height="40" as="geometry" />
        </mxCell>
        <mxCell id="G-xqhIzx53ZrXlxMzzN0-42" value="barang" style="whiteSpace=wrap;html=1;align=center;" parent="1" vertex="1">
          <mxGeometry x="1260" y="830" width="100" height="40" as="geometry" />
        </mxCell>
        <mxCell id="G-xqhIzx53ZrXlxMzzN0-43" value="harga : num" style="ellipse;whiteSpace=wrap;html=1;align=center;" parent="1" vertex="1">
          <mxGeometry x="1260" y="770" width="100" height="40" as="geometry" />
        </mxCell>
        <mxCell id="G-xqhIzx53ZrXlxMzzN0-44" value="rating : num" style="ellipse;whiteSpace=wrap;html=1;align=center;" parent="1" vertex="1">
          <mxGeometry x="1380" y="780" width="100" height="40" as="geometry" />
        </mxCell>
        <mxCell id="G-xqhIzx53ZrXlxMzzN0-45" value="nama : teks" style="ellipse;whiteSpace=wrap;html=1;align=center;" parent="1" vertex="1">
          <mxGeometry x="1375" y="840" width="100" height="40" as="geometry" />
        </mxCell>
        <mxCell id="G-xqhIzx53ZrXlxMzzN0-46" value="stok : numerik" style="ellipse;whiteSpace=wrap;html=1;align=center;" parent="1" vertex="1">
          <mxGeometry x="1150" y="790" width="100" height="40" as="geometry" />
        </mxCell>
        <mxCell id="G-xqhIzx53ZrXlxMzzN0-47" value="warna : teks" style="ellipse;whiteSpace=wrap;html=1;align=center;" parent="1" vertex="1">
          <mxGeometry x="1580" y="1010" width="100" height="40" as="geometry" />
        </mxCell>
        <mxCell id="G-xqhIzx53ZrXlxMzzN0-48" value="kategori : teks" style="ellipse;whiteSpace=wrap;html=1;align=center;" parent="1" vertex="1">
          <mxGeometry x="1190" y="900" width="100" height="40" as="geometry" />
        </mxCell>
        <mxCell id="G-xqhIzx53ZrXlxMzzN0-49" value="terjual : num" style="ellipse;whiteSpace=wrap;html=1;align=center;" parent="1" vertex="1">
          <mxGeometry x="1300" y="900" width="100" height="40" as="geometry" />
        </mxCell>
        <mxCell id="G-xqhIzx53ZrXlxMzzN0-52" value="detail : teks" style="ellipse;whiteSpace=wrap;html=1;align=center;" parent="1" vertex="1">
          <mxGeometry x="1340" y="950" width="100" height="40" as="geometry" />
        </mxCell>
        <mxCell id="G-xqhIzx53ZrXlxMzzN0-54" value="diskusi" style="whiteSpace=wrap;html=1;align=center;" parent="1" vertex="1">
          <mxGeometry x="1540" y="850" width="100" height="40" as="geometry" />
        </mxCell>
        <mxCell id="G-xqhIzx53ZrXlxMzzN0-55" value="spesifikasi" style="whiteSpace=wrap;html=1;align=center;" parent="1" vertex="1">
          <mxGeometry x="1510" y="950" width="100" height="40" as="geometry" />
        </mxCell>
        <mxCell id="G-xqhIzx53ZrXlxMzzN0-56" value="ram : num" style="ellipse;whiteSpace=wrap;html=1;align=center;" parent="1" vertex="1">
          <mxGeometry x="1475" y="1010" width="100" height="40" as="geometry" />
        </mxCell>
        <mxCell id="G-xqhIzx53ZrXlxMzzN0-57" value="ac : {&lt;div&gt;nomorseri: &quot;&quot;,&lt;/div&gt;&lt;div&gt;tipe: &quot;&quot;,&lt;/div&gt;&lt;div&gt;}&lt;/div&gt;" style="shape=note;size=20;whiteSpace=wrap;html=1;" parent="1" vertex="1">
          <mxGeometry x="1575" y="600" width="190" height="200" as="geometry" />
        </mxCell>
        <mxCell id="G-xqhIzx53ZrXlxMzzN0-58" value="&lt;div&gt;TARGET&lt;/div&gt;&lt;div&gt;&lt;br&gt;&lt;/div&gt;&lt;div&gt;minum sehari : 2 kali&lt;/div&gt;&lt;div&gt;lari : 2 km&lt;/div&gt;&lt;div&gt;olahraga : ya&lt;/div&gt;" style="shape=note;size=20;whiteSpace=wrap;html=1;" parent="1" vertex="1">
          <mxGeometry x="1790" y="590" width="190" height="200" as="geometry" />
        </mxCell>
        <mxCell id="G-xqhIzx53ZrXlxMzzN0-59" value="target" style="whiteSpace=wrap;html=1;align=center;" parent="1" vertex="1">
          <mxGeometry x="1760" y="830" width="100" height="40" as="geometry" />
        </mxCell>
        <mxCell id="G-xqhIzx53ZrXlxMzzN0-60" value="judul" style="ellipse;whiteSpace=wrap;html=1;align=center;" parent="1" vertex="1">
          <mxGeometry x="1710" y="890" width="100" height="40" as="geometry" />
        </mxCell>
        <mxCell id="G-xqhIzx53ZrXlxMzzN0-61" value="nilai" style="ellipse;whiteSpace=wrap;html=1;align=center;" parent="1" vertex="1">
          <mxGeometry x="1820" y="890" width="100" height="40" as="geometry" />
        </mxCell>
        <mxCell id="CQ1uCNhTKoEL_ttOnD3q-23" style="edgeStyle=orthogonalEdgeStyle;rounded=0;orthogonalLoop=1;jettySize=auto;html=1;" parent="1" source="G-xqhIzx53ZrXlxMzzN0-63" target="G-xqhIzx53ZrXlxMzzN0-42" edge="1">
          <mxGeometry relative="1" as="geometry" />
        </mxCell>
        <mxCell id="G-xqhIzx53ZrXlxMzzN0-63" value="gambar" style="whiteSpace=wrap;html=1;align=center;" parent="1" vertex="1">
          <mxGeometry x="1110" y="950" width="100" height="40" as="geometry" />
        </mxCell>
        <mxCell id="CQ1uCNhTKoEL_ttOnD3q-24" value="" style="edgeStyle=orthogonalEdgeStyle;rounded=0;orthogonalLoop=1;jettySize=auto;html=1;" parent="1" source="G-xqhIzx53ZrXlxMzzN0-64" target="G-xqhIzx53ZrXlxMzzN0-63" edge="1">
          <mxGeometry relative="1" as="geometry" />
        </mxCell>
        <mxCell id="G-xqhIzx53ZrXlxMzzN0-64" value="link" style="ellipse;whiteSpace=wrap;html=1;align=center;" parent="1" vertex="1">
          <mxGeometry x="1130" y="1020" width="100" height="40" as="geometry" />
        </mxCell>
        <mxCell id="G-xqhIzx53ZrXlxMzzN0-65" value="service" style="whiteSpace=wrap;html=1;align=center;" parent="1" vertex="1">
          <mxGeometry x="2100" y="310" width="140" height="40" as="geometry" />
        </mxCell>
        <mxCell id="G-xqhIzx53ZrXlxMzzN0-66" value="5w 1h&lt;div&gt;what&lt;/div&gt;&lt;div&gt;where&lt;/div&gt;&lt;div&gt;why&lt;br&gt;&lt;div&gt;when&lt;/div&gt;&lt;div&gt;who&lt;/div&gt;&lt;div&gt;how&lt;/div&gt;&lt;/div&gt;" style="shape=note;size=20;whiteSpace=wrap;html=1;" parent="1" vertex="1">
          <mxGeometry x="2400" y="90" width="190" height="190" as="geometry" />
        </mxCell>
        <mxCell id="G-xqhIzx53ZrXlxMzzN0-67" value="komplain / keluhan" style="ellipse;whiteSpace=wrap;html=1;align=center;" parent="1" vertex="1">
          <mxGeometry x="2010" y="260" width="100" height="40" as="geometry" />
        </mxCell>
        <mxCell id="G-xqhIzx53ZrXlxMzzN0-68" value="location" style="ellipse;whiteSpace=wrap;html=1;align=center;" parent="1" vertex="1">
          <mxGeometry x="1970" y="320" width="100" height="40" as="geometry" />
        </mxCell>
        <mxCell id="G-xqhIzx53ZrXlxMzzN0-69" value="tanggal perbaikan" style="ellipse;whiteSpace=wrap;html=1;align=center;" parent="1" vertex="1">
          <mxGeometry x="1980" y="370" width="100" height="40" as="geometry" />
        </mxCell>
        <mxCell id="G-xqhIzx53ZrXlxMzzN0-70" value="teknisi" style="ellipse;whiteSpace=wrap;html=1;align=center;" parent="1" vertex="1">
          <mxGeometry x="2075" y="200" width="100" height="40" as="geometry" />
        </mxCell>
        <mxCell id="G-xqhIzx53ZrXlxMzzN0-71" value="pelanggan" style="ellipse;whiteSpace=wrap;html=1;align=center;" parent="1" vertex="1">
          <mxGeometry x="2120" y="250" width="100" height="40" as="geometry" />
        </mxCell>
        <mxCell id="G-xqhIzx53ZrXlxMzzN0-72" value="solutions" style="ellipse;whiteSpace=wrap;html=1;align=center;" parent="1" vertex="1">
          <mxGeometry x="2240" y="270" width="100" height="40" as="geometry" />
        </mxCell>
        <mxCell id="G-xqhIzx53ZrXlxMzzN0-73" value="price" style="ellipse;whiteSpace=wrap;html=1;align=center;" parent="1" vertex="1">
          <mxGeometry x="2250" y="330" width="100" height="40" as="geometry" />
        </mxCell>
        <mxCell id="G-xqhIzx53ZrXlxMzzN0-74" value="payment method" style="ellipse;whiteSpace=wrap;html=1;align=center;" parent="1" vertex="1">
          <mxGeometry x="2220" y="380" width="100" height="40" as="geometry" />
        </mxCell>
        <mxCell id="G-xqhIzx53ZrXlxMzzN0-75" value="status" style="ellipse;whiteSpace=wrap;html=1;align=center;" parent="1" vertex="1">
          <mxGeometry x="2100" y="380" width="100" height="40" as="geometry" />
        </mxCell>
        <mxCell id="G-xqhIzx53ZrXlxMzzN0-76" value="tanggal pembayaran" style="ellipse;whiteSpace=wrap;html=1;align=center;" parent="1" vertex="1">
          <mxGeometry x="2050" y="420" width="100" height="40" as="geometry" />
        </mxCell>
        <mxCell id="G-xqhIzx53ZrXlxMzzN0-77" value="estimasi&amp;nbsp; pengerjaan" style="ellipse;whiteSpace=wrap;html=1;align=center;" parent="1" vertex="1">
          <mxGeometry x="2160" y="420" width="100" height="40" as="geometry" />
        </mxCell>
        <mxCell id="G-xqhIzx53ZrXlxMzzN0-78" value="tanggal komplain" style="ellipse;whiteSpace=wrap;html=1;align=center;" parent="1" vertex="1">
          <mxGeometry x="1940" y="420" width="100" height="40" as="geometry" />
        </mxCell>
        <mxCell id="G-xqhIzx53ZrXlxMzzN0-79" value="perbaikan :&lt;div&gt;status : selesai&lt;/div&gt;&lt;div&gt;pelanggan : Fulan&lt;/div&gt;&lt;div&gt;tanggal perbaikan : 2 Mar 2024&lt;/div&gt;&lt;div&gt;estimasi pengerjaan : 7 hari&lt;/div&gt;&lt;div&gt;tanggal selesai : 5 Mar 2024&lt;/div&gt;&lt;div&gt;lama pengerjaan : 3 hari&lt;/div&gt;" style="shape=note;size=20;whiteSpace=wrap;html=1;" parent="1" vertex="1">
          <mxGeometry x="2370" y="390" width="190" height="190" as="geometry" />
        </mxCell>
        <mxCell id="G-xqhIzx53ZrXlxMzzN0-80" value="ac" style="ellipse;whiteSpace=wrap;html=1;align=center;" parent="1" vertex="1">
          <mxGeometry x="2210" y="220" width="100" height="40" as="geometry" />
        </mxCell>
        <mxCell id="G-xqhIzx53ZrXlxMzzN0-81" value="tanggal selesai" style="ellipse;whiteSpace=wrap;html=1;align=center;" parent="1" vertex="1">
          <mxGeometry x="2110" y="470" width="100" height="40" as="geometry" />
        </mxCell>
        <mxCell id="G-xqhIzx53ZrXlxMzzN0-82" value="pm (project manager)&amp;nbsp;&lt;div&gt;-&amp;gt; lead / senior programmer&lt;/div&gt;&lt;div&gt;-&amp;gt; programmer&lt;/div&gt;" style="shape=note;size=20;whiteSpace=wrap;html=1;" parent="1" vertex="1">
          <mxGeometry x="2080" y="640" width="190" height="190" as="geometry" />
        </mxCell>
        <mxCell id="G-xqhIzx53ZrXlxMzzN0-83" value="rating : kalkulasi beberapa rating pelanggan" style="shape=note;size=20;whiteSpace=wrap;html=1;" parent="1" vertex="1">
          <mxGeometry x="940" y="660" width="170" height="210" as="geometry" />
        </mxCell>
        <mxCell id="G-xqhIzx53ZrXlxMzzN0-85" value="" style="endArrow=none;html=1;rounded=0;exitX=0.5;exitY=0;exitDx=0;exitDy=0;entryX=0.5;entryY=1;entryDx=0;entryDy=0;" parent="1" source="G-xqhIzx53ZrXlxMzzN0-75" target="G-xqhIzx53ZrXlxMzzN0-65" edge="1">
          <mxGeometry relative="1" as="geometry">
            <mxPoint x="2110" y="440" as="sourcePoint" />
            <mxPoint x="2270" y="440" as="targetPoint" />
          </mxGeometry>
        </mxCell>
        <mxCell id="G-xqhIzx53ZrXlxMzzN0-86" value="pelanggan:&lt;div&gt;id pelanggan : 3&lt;br&gt;&lt;div&gt;nama : Fulan&lt;/div&gt;&lt;div&gt;Tanggal Lahir : 1 Jan 2001&lt;/div&gt;&lt;div&gt;Gender : laki&lt;/div&gt;&lt;/div&gt;" style="shape=note;size=20;whiteSpace=wrap;html=1;" parent="1" vertex="1">
          <mxGeometry x="-20" y="520" width="240" height="140" as="geometry" />
        </mxCell>
        <mxCell id="G-xqhIzx53ZrXlxMzzN0-88" value="id barang" style="ellipse;whiteSpace=wrap;html=1;align=center;fontStyle=4;" parent="1" vertex="1">
          <mxGeometry x="1130" y="840" width="100" height="40" as="geometry" />
        </mxCell>
        <mxCell id="G-xqhIzx53ZrXlxMzzN0-89" value="id service" style="ellipse;whiteSpace=wrap;html=1;align=center;fontStyle=4;" parent="1" vertex="1">
          <mxGeometry x="1950" y="210" width="100" height="40" as="geometry" />
        </mxCell>
        <mxCell id="G-xqhIzx53ZrXlxMzzN0-90" value="id ac" style="ellipse;whiteSpace=wrap;html=1;align=center;fontStyle=4;" parent="1" vertex="1">
          <mxGeometry x="1200" y="490" width="100" height="40" as="geometry" />
        </mxCell>
        <mxCell id="G-xqhIzx53ZrXlxMzzN0-99" style="edgeStyle=orthogonalEdgeStyle;rounded=0;orthogonalLoop=1;jettySize=auto;html=1;" parent="1" source="G-xqhIzx53ZrXlxMzzN0-92" target="G-xqhIzx53ZrXlxMzzN0-97" edge="1">
          <mxGeometry relative="1" as="geometry" />
        </mxCell>
        <mxCell id="G-xqhIzx53ZrXlxMzzN0-92" value="pelanggan" style="whiteSpace=wrap;html=1;align=center;" parent="1" vertex="1">
          <mxGeometry x="2680" y="240" width="100" height="40" as="geometry" />
        </mxCell>
        <mxCell id="G-xqhIzx53ZrXlxMzzN0-101" style="edgeStyle=orthogonalEdgeStyle;rounded=0;orthogonalLoop=1;jettySize=auto;html=1;" parent="1" source="G-xqhIzx53ZrXlxMzzN0-93" target="G-xqhIzx53ZrXlxMzzN0-98" edge="1">
          <mxGeometry relative="1" as="geometry" />
        </mxCell>
        <mxCell id="G-xqhIzx53ZrXlxMzzN0-93" value="teknisi" style="whiteSpace=wrap;html=1;align=center;" parent="1" vertex="1">
          <mxGeometry x="3050" y="240" width="100" height="40" as="geometry" />
        </mxCell>
        <mxCell id="G-xqhIzx53ZrXlxMzzN0-106" style="edgeStyle=orthogonalEdgeStyle;rounded=0;orthogonalLoop=1;jettySize=auto;html=1;" parent="1" source="G-xqhIzx53ZrXlxMzzN0-94" target="G-xqhIzx53ZrXlxMzzN0-105" edge="1">
          <mxGeometry relative="1" as="geometry" />
        </mxCell>
        <mxCell id="G-xqhIzx53ZrXlxMzzN0-94" value="service" style="whiteSpace=wrap;html=1;align=center;" parent="1" vertex="1">
          <mxGeometry x="2860" y="360" width="100" height="40" as="geometry" />
        </mxCell>
        <mxCell id="G-xqhIzx53ZrXlxMzzN0-95" value="ac" style="whiteSpace=wrap;html=1;align=center;" parent="1" vertex="1">
          <mxGeometry x="2860" y="560" width="100" height="40" as="geometry" />
        </mxCell>
        <mxCell id="G-xqhIzx53ZrXlxMzzN0-100" style="edgeStyle=orthogonalEdgeStyle;rounded=0;orthogonalLoop=1;jettySize=auto;html=1;" parent="1" source="G-xqhIzx53ZrXlxMzzN0-97" target="G-xqhIzx53ZrXlxMzzN0-94" edge="1">
          <mxGeometry relative="1" as="geometry" />
        </mxCell>
        <mxCell id="G-xqhIzx53ZrXlxMzzN0-97" value="melakukan /&lt;div&gt;&amp;nbsp;request&lt;/div&gt;" style="shape=rhombus;perimeter=rhombusPerimeter;whiteSpace=wrap;html=1;align=center;" parent="1" vertex="1">
          <mxGeometry x="2710" y="300" width="120" height="60" as="geometry" />
        </mxCell>
        <mxCell id="G-xqhIzx53ZrXlxMzzN0-102" style="edgeStyle=orthogonalEdgeStyle;rounded=0;orthogonalLoop=1;jettySize=auto;html=1;" parent="1" source="G-xqhIzx53ZrXlxMzzN0-98" target="G-xqhIzx53ZrXlxMzzN0-94" edge="1">
          <mxGeometry relative="1" as="geometry" />
        </mxCell>
        <mxCell id="G-xqhIzx53ZrXlxMzzN0-98" value="melakukan /&lt;div&gt;&amp;nbsp;service&lt;/div&gt;" style="shape=rhombus;perimeter=rhombusPerimeter;whiteSpace=wrap;html=1;align=center;" parent="1" vertex="1">
          <mxGeometry x="2990" y="300" width="120" height="60" as="geometry" />
        </mxCell>
        <mxCell id="G-xqhIzx53ZrXlxMzzN0-107" style="edgeStyle=orthogonalEdgeStyle;rounded=0;orthogonalLoop=1;jettySize=auto;html=1;entryX=0.5;entryY=0;entryDx=0;entryDy=0;" parent="1" source="G-xqhIzx53ZrXlxMzzN0-105" target="G-xqhIzx53ZrXlxMzzN0-95" edge="1">
          <mxGeometry relative="1" as="geometry" />
        </mxCell>
        <mxCell id="G-xqhIzx53ZrXlxMzzN0-105" value="diperbaiki" style="shape=rhombus;perimeter=rhombusPerimeter;whiteSpace=wrap;html=1;align=center;" parent="1" vertex="1">
          <mxGeometry x="2850" y="450" width="120" height="60" as="geometry" />
        </mxCell>
        <mxCell id="G-xqhIzx53ZrXlxMzzN0-113" style="edgeStyle=orthogonalEdgeStyle;rounded=0;orthogonalLoop=1;jettySize=auto;html=1;" parent="1" source="G-xqhIzx53ZrXlxMzzN0-108" target="G-xqhIzx53ZrXlxMzzN0-112" edge="1">
          <mxGeometry relative="1" as="geometry" />
        </mxCell>
        <mxCell id="G-xqhIzx53ZrXlxMzzN0-108" value="pembeli" style="whiteSpace=wrap;html=1;align=center;" parent="1" vertex="1">
          <mxGeometry x="3220" y="330" width="100" height="40" as="geometry" />
        </mxCell>
        <mxCell id="G-xqhIzx53ZrXlxMzzN0-116" style="edgeStyle=orthogonalEdgeStyle;rounded=0;orthogonalLoop=1;jettySize=auto;html=1;" parent="1" source="G-xqhIzx53ZrXlxMzzN0-109" target="G-xqhIzx53ZrXlxMzzN0-115" edge="1">
          <mxGeometry relative="1" as="geometry" />
        </mxCell>
        <mxCell id="G-xqhIzx53ZrXlxMzzN0-122" style="edgeStyle=orthogonalEdgeStyle;rounded=0;orthogonalLoop=1;jettySize=auto;html=1;" parent="1" source="G-xqhIzx53ZrXlxMzzN0-109" target="G-xqhIzx53ZrXlxMzzN0-121" edge="1">
          <mxGeometry relative="1" as="geometry" />
        </mxCell>
        <mxCell id="G-xqhIzx53ZrXlxMzzN0-109" value="penjual" style="whiteSpace=wrap;html=1;align=center;" parent="1" vertex="1">
          <mxGeometry x="3610" y="325" width="100" height="40" as="geometry" />
        </mxCell>
        <mxCell id="G-xqhIzx53ZrXlxMzzN0-110" value="barang" style="whiteSpace=wrap;html=1;align=center;" parent="1" vertex="1">
          <mxGeometry x="3410" y="650" width="100" height="40" as="geometry" />
        </mxCell>
        <mxCell id="G-xqhIzx53ZrXlxMzzN0-119" style="edgeStyle=orthogonalEdgeStyle;rounded=0;orthogonalLoop=1;jettySize=auto;html=1;" parent="1" source="G-xqhIzx53ZrXlxMzzN0-111" target="G-xqhIzx53ZrXlxMzzN0-118" edge="1">
          <mxGeometry relative="1" as="geometry" />
        </mxCell>
        <mxCell id="G-xqhIzx53ZrXlxMzzN0-111" value="transaksi" style="whiteSpace=wrap;html=1;align=center;" parent="1" vertex="1">
          <mxGeometry x="3410" y="460" width="100" height="40" as="geometry" />
        </mxCell>
        <mxCell id="G-xqhIzx53ZrXlxMzzN0-114" style="edgeStyle=orthogonalEdgeStyle;rounded=0;orthogonalLoop=1;jettySize=auto;html=1;" parent="1" source="G-xqhIzx53ZrXlxMzzN0-112" target="G-xqhIzx53ZrXlxMzzN0-111" edge="1">
          <mxGeometry relative="1" as="geometry" />
        </mxCell>
        <mxCell id="G-xqhIzx53ZrXlxMzzN0-112" value="melakukan" style="shape=rhombus;perimeter=rhombusPerimeter;whiteSpace=wrap;html=1;align=center;" parent="1" vertex="1">
          <mxGeometry x="3210" y="450" width="120" height="60" as="geometry" />
        </mxCell>
        <mxCell id="G-xqhIzx53ZrXlxMzzN0-117" style="edgeStyle=orthogonalEdgeStyle;rounded=0;orthogonalLoop=1;jettySize=auto;html=1;" parent="1" source="G-xqhIzx53ZrXlxMzzN0-115" target="G-xqhIzx53ZrXlxMzzN0-111" edge="1">
          <mxGeometry relative="1" as="geometry" />
        </mxCell>
        <mxCell id="G-xqhIzx53ZrXlxMzzN0-115" value="melayani" style="shape=rhombus;perimeter=rhombusPerimeter;whiteSpace=wrap;html=1;align=center;" parent="1" vertex="1">
          <mxGeometry x="3400" y="315" width="120" height="60" as="geometry" />
        </mxCell>
        <mxCell id="G-xqhIzx53ZrXlxMzzN0-120" style="edgeStyle=orthogonalEdgeStyle;rounded=0;orthogonalLoop=1;jettySize=auto;html=1;" parent="1" source="G-xqhIzx53ZrXlxMzzN0-118" target="G-xqhIzx53ZrXlxMzzN0-110" edge="1">
          <mxGeometry relative="1" as="geometry" />
        </mxCell>
        <mxCell id="G-xqhIzx53ZrXlxMzzN0-118" value="memiliki" style="shape=rhombus;perimeter=rhombusPerimeter;whiteSpace=wrap;html=1;align=center;" parent="1" vertex="1">
          <mxGeometry x="3400" y="540" width="120" height="60" as="geometry" />
        </mxCell>
        <mxCell id="G-xqhIzx53ZrXlxMzzN0-123" style="edgeStyle=orthogonalEdgeStyle;rounded=0;orthogonalLoop=1;jettySize=auto;html=1;entryX=1;entryY=0.5;entryDx=0;entryDy=0;" parent="1" source="G-xqhIzx53ZrXlxMzzN0-121" target="G-xqhIzx53ZrXlxMzzN0-110" edge="1">
          <mxGeometry relative="1" as="geometry" />
        </mxCell>
        <mxCell id="G-xqhIzx53ZrXlxMzzN0-121" value="menyediakan" style="shape=rhombus;perimeter=rhombusPerimeter;whiteSpace=wrap;html=1;align=center;" parent="1" vertex="1">
          <mxGeometry x="3600" y="640" width="120" height="60" as="geometry" />
        </mxCell>
        <mxCell id="G-xqhIzx53ZrXlxMzzN0-125" value="Database Realtional&lt;div&gt;entitas = tabel&lt;/div&gt;&lt;div&gt;atribut = kolom&lt;/div&gt;&lt;div&gt;&lt;br&gt;&lt;/div&gt;&lt;div&gt;ERD -&amp;gt; database (mysql) -&amp;gt; laravel&lt;/div&gt;" style="shape=note;size=20;whiteSpace=wrap;html=1;" parent="1" vertex="1">
          <mxGeometry x="3070" y="560" width="240" height="150" as="geometry" />
        </mxCell>
        <mxCell id="G-xqhIzx53ZrXlxMzzN0-126" value="Transaksi :&amp;nbsp;&lt;div&gt;siapa yang beli ?&lt;/div&gt;&lt;div&gt;siapa yang menjual ?&lt;/div&gt;&lt;div&gt;apa yang dibeli ?&lt;/div&gt;&lt;div&gt;- shampo&lt;/div&gt;&lt;div&gt;- sabun&lt;/div&gt;&lt;div&gt;kapan dibeli ?&lt;/div&gt;&lt;div&gt;harga berapa ?&lt;/div&gt;&lt;div&gt;status pembayaran apa ?&lt;/div&gt;&lt;div&gt;metode pembayaran apa ?&lt;/div&gt;" style="shape=note;size=20;whiteSpace=wrap;html=1;" parent="1" vertex="1">
          <mxGeometry x="3070" y="760" width="240" height="150" as="geometry" />
        </mxCell>
        <mxCell id="CQ1uCNhTKoEL_ttOnD3q-1" value="alamat" style="ellipse;whiteSpace=wrap;html=1;align=center;" parent="1" vertex="1">
          <mxGeometry x="520" y="850" width="100" height="40" as="geometry" />
        </mxCell>
        <mxCell id="CQ1uCNhTKoEL_ttOnD3q-8" style="edgeStyle=orthogonalEdgeStyle;rounded=0;orthogonalLoop=1;jettySize=auto;html=1;" parent="1" source="CQ1uCNhTKoEL_ttOnD3q-2" target="CQ1uCNhTKoEL_ttOnD3q-1" edge="1">
          <mxGeometry relative="1" as="geometry" />
        </mxCell>
        <mxCell id="CQ1uCNhTKoEL_ttOnD3q-2" value="jalan" style="ellipse;whiteSpace=wrap;html=1;align=center;" parent="1" vertex="1">
          <mxGeometry x="420" y="920" width="100" height="40" as="geometry" />
        </mxCell>
        <mxCell id="CQ1uCNhTKoEL_ttOnD3q-9" style="edgeStyle=orthogonalEdgeStyle;rounded=0;orthogonalLoop=1;jettySize=auto;html=1;" parent="1" source="CQ1uCNhTKoEL_ttOnD3q-3" target="CQ1uCNhTKoEL_ttOnD3q-1" edge="1">
          <mxGeometry relative="1" as="geometry" />
        </mxCell>
        <mxCell id="CQ1uCNhTKoEL_ttOnD3q-3" value="nomor" style="ellipse;whiteSpace=wrap;html=1;align=center;" parent="1" vertex="1">
          <mxGeometry x="540" y="920" width="100" height="40" as="geometry" />
        </mxCell>
        <mxCell id="CQ1uCNhTKoEL_ttOnD3q-4" value="jl. mawar no 3 rt 4 rw 5, kec. abc, kel. abc, kota. Bandung, Provinsi Jawa Barat" style="shape=note;size=20;whiteSpace=wrap;html=1;" parent="1" vertex="1">
          <mxGeometry x="650" y="360" width="290" height="140" as="geometry" />
        </mxCell>
        <mxCell id="CQ1uCNhTKoEL_ttOnD3q-10" style="edgeStyle=orthogonalEdgeStyle;rounded=0;orthogonalLoop=1;jettySize=auto;html=1;" parent="1" source="CQ1uCNhTKoEL_ttOnD3q-5" target="CQ1uCNhTKoEL_ttOnD3q-1" edge="1">
          <mxGeometry relative="1" as="geometry">
            <Array as="points">
              <mxPoint x="720" y="880" />
            </Array>
          </mxGeometry>
        </mxCell>
        <mxCell id="CQ1uCNhTKoEL_ttOnD3q-5" value="rt" style="ellipse;whiteSpace=wrap;html=1;align=center;" parent="1" vertex="1">
          <mxGeometry x="670" y="920" width="100" height="40" as="geometry" />
        </mxCell>
        <mxCell id="CQ1uCNhTKoEL_ttOnD3q-7" style="edgeStyle=orthogonalEdgeStyle;rounded=0;orthogonalLoop=1;jettySize=auto;html=1;" parent="1" source="CQ1uCNhTKoEL_ttOnD3q-6" target="CQ1uCNhTKoEL_ttOnD3q-1" edge="1">
          <mxGeometry relative="1" as="geometry" />
        </mxCell>
        <mxCell id="CQ1uCNhTKoEL_ttOnD3q-6" value="rw" style="ellipse;whiteSpace=wrap;html=1;align=center;" parent="1" vertex="1">
          <mxGeometry x="340" y="850" width="100" height="40" as="geometry" />
        </mxCell>
        <mxCell id="CQ1uCNhTKoEL_ttOnD3q-12" style="edgeStyle=orthogonalEdgeStyle;rounded=0;orthogonalLoop=1;jettySize=auto;html=1;entryX=0.5;entryY=0;entryDx=0;entryDy=0;" parent="1" source="CQ1uCNhTKoEL_ttOnD3q-11" target="CQ1uCNhTKoEL_ttOnD3q-1" edge="1">
          <mxGeometry relative="1" as="geometry" />
        </mxCell>
        <mxCell id="CQ1uCNhTKoEL_ttOnD3q-11" value="user" style="whiteSpace=wrap;html=1;align=center;" parent="1" vertex="1">
          <mxGeometry x="580" y="720" width="100" height="40" as="geometry" />
        </mxCell>
        <mxCell id="CQ1uCNhTKoEL_ttOnD3q-14" style="edgeStyle=orthogonalEdgeStyle;rounded=0;orthogonalLoop=1;jettySize=auto;html=1;" parent="1" source="CQ1uCNhTKoEL_ttOnD3q-13" target="CQ1uCNhTKoEL_ttOnD3q-11" edge="1">
          <mxGeometry relative="1" as="geometry" />
        </mxCell>
        <mxCell id="CQ1uCNhTKoEL_ttOnD3q-13" value="nama" style="ellipse;whiteSpace=wrap;html=1;align=center;" parent="1" vertex="1">
          <mxGeometry x="750" y="680" width="100" height="40" as="geometry" />
        </mxCell>
        <mxCell id="CQ1uCNhTKoEL_ttOnD3q-18" style="edgeStyle=orthogonalEdgeStyle;rounded=0;orthogonalLoop=1;jettySize=auto;html=1;" parent="1" source="CQ1uCNhTKoEL_ttOnD3q-17" target="CQ1uCNhTKoEL_ttOnD3q-11" edge="1">
          <mxGeometry relative="1" as="geometry" />
        </mxCell>
        <mxCell id="CQ1uCNhTKoEL_ttOnD3q-17" value="nomor hp" style="whiteSpace=wrap;html=1;align=center;" parent="1" vertex="1">
          <mxGeometry x="580" y="550" width="100" height="40" as="geometry" />
        </mxCell>
        <mxCell id="CQ1uCNhTKoEL_ttOnD3q-20" style="edgeStyle=orthogonalEdgeStyle;rounded=0;orthogonalLoop=1;jettySize=auto;html=1;" parent="1" source="CQ1uCNhTKoEL_ttOnD3q-19" target="CQ1uCNhTKoEL_ttOnD3q-17" edge="1">
          <mxGeometry relative="1" as="geometry" />
        </mxCell>
        <mxCell id="CQ1uCNhTKoEL_ttOnD3q-19" value="nomor" style="ellipse;whiteSpace=wrap;html=1;align=center;" parent="1" vertex="1">
          <mxGeometry x="760" y="570" width="100" height="40" as="geometry" />
        </mxCell>
        <mxCell id="CQ1uCNhTKoEL_ttOnD3q-22" style="edgeStyle=orthogonalEdgeStyle;rounded=0;orthogonalLoop=1;jettySize=auto;html=1;" parent="1" source="CQ1uCNhTKoEL_ttOnD3q-21" target="CQ1uCNhTKoEL_ttOnD3q-17" edge="1">
          <mxGeometry relative="1" as="geometry">
            <Array as="points">
              <mxPoint x="660" y="650" />
            </Array>
          </mxGeometry>
        </mxCell>
        <mxCell id="CQ1uCNhTKoEL_ttOnD3q-21" value="provider" style="ellipse;whiteSpace=wrap;html=1;align=center;" parent="1" vertex="1">
          <mxGeometry x="750" y="630" width="100" height="40" as="geometry" />
        </mxCell>
        <mxCell id="CQ1uCNhTKoEL_ttOnD3q-26" style="edgeStyle=orthogonalEdgeStyle;rounded=0;orthogonalLoop=1;jettySize=auto;html=1;" parent="1" source="CQ1uCNhTKoEL_ttOnD3q-25" target="CQ1uCNhTKoEL_ttOnD3q-11" edge="1">
          <mxGeometry relative="1" as="geometry" />
        </mxCell>
        <mxCell id="CQ1uCNhTKoEL_ttOnD3q-25" value="tanggal_lahir" style="ellipse;whiteSpace=wrap;html=1;align=center;" parent="1" vertex="1">
          <mxGeometry x="760" y="770" width="100" height="40" as="geometry" />
        </mxCell>
        <mxCell id="CQ1uCNhTKoEL_ttOnD3q-28" style="edgeStyle=orthogonalEdgeStyle;rounded=0;orthogonalLoop=1;jettySize=auto;html=1;" parent="1" source="CQ1uCNhTKoEL_ttOnD3q-27" target="CQ1uCNhTKoEL_ttOnD3q-25" edge="1">
          <mxGeometry relative="1" as="geometry" />
        </mxCell>
        <mxCell id="CQ1uCNhTKoEL_ttOnD3q-27" value="umur" style="ellipse;whiteSpace=wrap;html=1;align=center;" parent="1" vertex="1">
          <mxGeometry x="790" y="870" width="100" height="40" as="geometry" />
        </mxCell>
        <mxCell id="CQ1uCNhTKoEL_ttOnD3q-31" style="edgeStyle=orthogonalEdgeStyle;rounded=0;orthogonalLoop=1;jettySize=auto;html=1;" parent="1" source="CQ1uCNhTKoEL_ttOnD3q-30" target="CQ1uCNhTKoEL_ttOnD3q-11" edge="1">
          <mxGeometry relative="1" as="geometry" />
        </mxCell>
        <mxCell id="CQ1uCNhTKoEL_ttOnD3q-30" value="id user" style="ellipse;whiteSpace=wrap;html=1;align=center;fontStyle=4;" parent="1" vertex="1">
          <mxGeometry x="410" y="700" width="100" height="40" as="geometry" />
        </mxCell>
        <mxCell id="CQ1uCNhTKoEL_ttOnD3q-49" style="edgeStyle=orthogonalEdgeStyle;rounded=0;orthogonalLoop=1;jettySize=auto;html=1;" parent="1" source="CQ1uCNhTKoEL_ttOnD3q-32" target="CQ1uCNhTKoEL_ttOnD3q-48" edge="1">
          <mxGeometry relative="1" as="geometry" />
        </mxCell>
        <mxCell id="CQ1uCNhTKoEL_ttOnD3q-67" value="1" style="edgeLabel;html=1;align=center;verticalAlign=middle;resizable=0;points=[];" parent="CQ1uCNhTKoEL_ttOnD3q-49" vertex="1" connectable="0">
          <mxGeometry x="-0.1829" relative="1" as="geometry">
            <mxPoint y="-20" as="offset" />
          </mxGeometry>
        </mxCell>
        <mxCell id="CQ1uCNhTKoEL_ttOnD3q-32" value="Pelanggan" style="whiteSpace=wrap;html=1;align=center;" parent="1" vertex="1">
          <mxGeometry x="-570" y="165" width="100" height="40" as="geometry" />
        </mxCell>
        <mxCell id="CQ1uCNhTKoEL_ttOnD3q-42" style="edgeStyle=orthogonalEdgeStyle;rounded=0;orthogonalLoop=1;jettySize=auto;html=1;" parent="1" source="CQ1uCNhTKoEL_ttOnD3q-33" target="CQ1uCNhTKoEL_ttOnD3q-40" edge="1">
          <mxGeometry relative="1" as="geometry" />
        </mxCell>
        <mxCell id="CQ1uCNhTKoEL_ttOnD3q-69" value="1" style="edgeLabel;html=1;align=center;verticalAlign=middle;resizable=0;points=[];" parent="CQ1uCNhTKoEL_ttOnD3q-42" vertex="1" connectable="0">
          <mxGeometry x="0.1262" y="-4" relative="1" as="geometry">
            <mxPoint x="16" y="7" as="offset" />
          </mxGeometry>
        </mxCell>
        <mxCell id="CQ1uCNhTKoEL_ttOnD3q-33" value="Teknisi" style="whiteSpace=wrap;html=1;align=center;" parent="1" vertex="1">
          <mxGeometry x="-200" y="390" width="100" height="40" as="geometry" />
        </mxCell>
        <mxCell id="CQ1uCNhTKoEL_ttOnD3q-41" style="edgeStyle=orthogonalEdgeStyle;rounded=0;orthogonalLoop=1;jettySize=auto;html=1;" parent="1" source="CQ1uCNhTKoEL_ttOnD3q-34" target="CQ1uCNhTKoEL_ttOnD3q-40" edge="1">
          <mxGeometry relative="1" as="geometry" />
        </mxCell>
        <mxCell id="CQ1uCNhTKoEL_ttOnD3q-68" value="N" style="edgeLabel;html=1;align=center;verticalAlign=middle;resizable=0;points=[];" parent="CQ1uCNhTKoEL_ttOnD3q-41" vertex="1" connectable="0">
          <mxGeometry x="-0.4533" y="3" relative="1" as="geometry">
            <mxPoint x="7" y="-2" as="offset" />
          </mxGeometry>
        </mxCell>
        <mxCell id="CQ1uCNhTKoEL_ttOnD3q-50" style="edgeStyle=orthogonalEdgeStyle;rounded=0;orthogonalLoop=1;jettySize=auto;html=1;endArrow=none;endFill=0;" parent="1" source="CQ1uCNhTKoEL_ttOnD3q-34" target="CQ1uCNhTKoEL_ttOnD3q-48" edge="1">
          <mxGeometry relative="1" as="geometry" />
        </mxCell>
        <mxCell id="CQ1uCNhTKoEL_ttOnD3q-66" value="N" style="edgeLabel;html=1;align=center;verticalAlign=middle;resizable=0;points=[];" parent="CQ1uCNhTKoEL_ttOnD3q-50" vertex="1" connectable="0">
          <mxGeometry x="-0.145" y="-2" relative="1" as="geometry">
            <mxPoint x="4" y="-13" as="offset" />
          </mxGeometry>
        </mxCell>
        <mxCell id="CQ1uCNhTKoEL_ttOnD3q-34" value="perbaikan" style="whiteSpace=wrap;html=1;align=center;" parent="1" vertex="1">
          <mxGeometry x="-200" y="165" width="100" height="40" as="geometry" />
        </mxCell>
        <mxCell id="CQ1uCNhTKoEL_ttOnD3q-35" value="alat elektronik" style="whiteSpace=wrap;html=1;align=center;" parent="1" vertex="1">
          <mxGeometry x="20" y="70" width="100" height="40" as="geometry" />
        </mxCell>
        <mxCell id="CQ1uCNhTKoEL_ttOnD3q-40" value="melakukan" style="shape=rhombus;perimeter=rhombusPerimeter;whiteSpace=wrap;html=1;align=center;" parent="1" vertex="1">
          <mxGeometry x="-210" y="265" width="120" height="60" as="geometry" />
        </mxCell>
        <mxCell id="CQ1uCNhTKoEL_ttOnD3q-45" style="edgeStyle=orthogonalEdgeStyle;rounded=0;orthogonalLoop=1;jettySize=auto;html=1;" parent="1" source="CQ1uCNhTKoEL_ttOnD3q-43" target="CQ1uCNhTKoEL_ttOnD3q-44" edge="1">
          <mxGeometry relative="1" as="geometry" />
        </mxCell>
        <mxCell id="CQ1uCNhTKoEL_ttOnD3q-43" value="pengguna" style="whiteSpace=wrap;html=1;align=center;" parent="1" vertex="1">
          <mxGeometry x="-30" y="715" width="100" height="40" as="geometry" />
        </mxCell>
        <mxCell id="CQ1uCNhTKoEL_ttOnD3q-46" style="edgeStyle=orthogonalEdgeStyle;rounded=0;orthogonalLoop=1;jettySize=auto;html=1;entryX=0.75;entryY=1;entryDx=0;entryDy=0;" parent="1" source="CQ1uCNhTKoEL_ttOnD3q-44" target="CQ1uCNhTKoEL_ttOnD3q-43" edge="1">
          <mxGeometry relative="1" as="geometry">
            <Array as="points">
              <mxPoint x="-160" y="800" />
              <mxPoint x="45" y="800" />
            </Array>
          </mxGeometry>
        </mxCell>
        <mxCell id="CQ1uCNhTKoEL_ttOnD3q-44" value="menggaji" style="shape=rhombus;perimeter=rhombusPerimeter;whiteSpace=wrap;html=1;align=center;" parent="1" vertex="1">
          <mxGeometry x="-220" y="705" width="120" height="60" as="geometry" />
        </mxCell>
        <mxCell id="CQ1uCNhTKoEL_ttOnD3q-47" value="alasan mengapa harus ada desain database :&lt;div&gt;1. untuk memetakan database (analisis)&lt;/div&gt;&lt;div&gt;2. untuk menghubungkan relasi antar tabel&lt;/div&gt;" style="shape=note;size=20;whiteSpace=wrap;html=1;" parent="1" vertex="1">
          <mxGeometry x="-690" y="400" width="350" height="120" as="geometry" />
        </mxCell>
        <mxCell id="CQ1uCNhTKoEL_ttOnD3q-48" value="melakukan" style="shape=rhombus;perimeter=rhombusPerimeter;whiteSpace=wrap;html=1;align=center;" parent="1" vertex="1">
          <mxGeometry x="-400" y="155" width="120" height="60" as="geometry" />
        </mxCell>
        <mxCell id="CQ1uCNhTKoEL_ttOnD3q-51" value="pembayaran" style="whiteSpace=wrap;html=1;align=center;" parent="1" vertex="1">
          <mxGeometry x="-200" y="-60" width="100" height="40" as="geometry" />
        </mxCell>
        <mxCell id="CQ1uCNhTKoEL_ttOnD3q-53" style="edgeStyle=orthogonalEdgeStyle;rounded=0;orthogonalLoop=1;jettySize=auto;html=1;" parent="1" source="CQ1uCNhTKoEL_ttOnD3q-52" target="CQ1uCNhTKoEL_ttOnD3q-34" edge="1">
          <mxGeometry relative="1" as="geometry" />
        </mxCell>
        <mxCell id="CQ1uCNhTKoEL_ttOnD3q-71" value="1" style="edgeLabel;html=1;align=center;verticalAlign=middle;resizable=0;points=[];" parent="CQ1uCNhTKoEL_ttOnD3q-53" vertex="1" connectable="0">
          <mxGeometry x="-0.0708" y="3" relative="1" as="geometry">
            <mxPoint x="7" as="offset" />
          </mxGeometry>
        </mxCell>
        <mxCell id="CQ1uCNhTKoEL_ttOnD3q-54" style="edgeStyle=orthogonalEdgeStyle;rounded=0;orthogonalLoop=1;jettySize=auto;html=1;" parent="1" source="CQ1uCNhTKoEL_ttOnD3q-52" target="CQ1uCNhTKoEL_ttOnD3q-51" edge="1">
          <mxGeometry relative="1" as="geometry" />
        </mxCell>
        <mxCell id="CQ1uCNhTKoEL_ttOnD3q-70" value="1" style="edgeLabel;html=1;align=center;verticalAlign=middle;resizable=0;points=[];" parent="CQ1uCNhTKoEL_ttOnD3q-54" vertex="1" connectable="0">
          <mxGeometry x="0.1267" relative="1" as="geometry">
            <mxPoint x="10" as="offset" />
          </mxGeometry>
        </mxCell>
        <mxCell id="CQ1uCNhTKoEL_ttOnD3q-52" value="memiliki" style="shape=rhombus;perimeter=rhombusPerimeter;whiteSpace=wrap;html=1;align=center;" parent="1" vertex="1">
          <mxGeometry x="-210" y="40" width="120" height="60" as="geometry" />
        </mxCell>
        <mxCell id="CQ1uCNhTKoEL_ttOnD3q-61" style="edgeStyle=orthogonalEdgeStyle;rounded=0;orthogonalLoop=1;jettySize=auto;html=1;" parent="1" source="CQ1uCNhTKoEL_ttOnD3q-55" target="CQ1uCNhTKoEL_ttOnD3q-60" edge="1">
          <mxGeometry relative="1" as="geometry" />
        </mxCell>
        <mxCell id="CQ1uCNhTKoEL_ttOnD3q-63" style="edgeStyle=orthogonalEdgeStyle;rounded=0;orthogonalLoop=1;jettySize=auto;html=1;" parent="1" source="CQ1uCNhTKoEL_ttOnD3q-55" target="CQ1uCNhTKoEL_ttOnD3q-59" edge="1">
          <mxGeometry relative="1" as="geometry" />
        </mxCell>
        <mxCell id="CQ1uCNhTKoEL_ttOnD3q-55" value="grup" style="whiteSpace=wrap;html=1;align=center;" parent="1" vertex="1">
          <mxGeometry x="-600" y="520" width="100" height="40" as="geometry" />
        </mxCell>
        <mxCell id="CQ1uCNhTKoEL_ttOnD3q-56" value="admin grup&lt;div&gt;anggota grup&lt;/div&gt;&lt;div&gt;grup&lt;/div&gt;" style="shape=note;size=20;whiteSpace=wrap;html=1;" parent="1" vertex="1">
          <mxGeometry x="-1060" y="470" width="350" height="120" as="geometry" />
        </mxCell>
        <mxCell id="CQ1uCNhTKoEL_ttOnD3q-64" style="edgeStyle=orthogonalEdgeStyle;rounded=0;orthogonalLoop=1;jettySize=auto;html=1;" parent="1" source="CQ1uCNhTKoEL_ttOnD3q-57" target="CQ1uCNhTKoEL_ttOnD3q-59" edge="1">
          <mxGeometry relative="1" as="geometry" />
        </mxCell>
        <mxCell id="CQ1uCNhTKoEL_ttOnD3q-57" value="admin_grup" style="whiteSpace=wrap;html=1;align=center;" parent="1" vertex="1">
          <mxGeometry x="-270" y="520" width="100" height="40" as="geometry" />
        </mxCell>
        <mxCell id="CQ1uCNhTKoEL_ttOnD3q-62" style="edgeStyle=orthogonalEdgeStyle;rounded=0;orthogonalLoop=1;jettySize=auto;html=1;" parent="1" source="CQ1uCNhTKoEL_ttOnD3q-58" target="CQ1uCNhTKoEL_ttOnD3q-60" edge="1">
          <mxGeometry relative="1" as="geometry" />
        </mxCell>
        <mxCell id="CQ1uCNhTKoEL_ttOnD3q-58" value="anggota_grup" style="whiteSpace=wrap;html=1;align=center;" parent="1" vertex="1">
          <mxGeometry x="-600" y="730" width="100" height="40" as="geometry" />
        </mxCell>
        <mxCell id="CQ1uCNhTKoEL_ttOnD3q-59" value="Relationship" style="shape=rhombus;perimeter=rhombusPerimeter;whiteSpace=wrap;html=1;align=center;" parent="1" vertex="1">
          <mxGeometry x="-450" y="510" width="120" height="60" as="geometry" />
        </mxCell>
        <mxCell id="CQ1uCNhTKoEL_ttOnD3q-60" value="Relationship" style="shape=rhombus;perimeter=rhombusPerimeter;whiteSpace=wrap;html=1;align=center;" parent="1" vertex="1">
          <mxGeometry x="-619" y="629" width="120" height="60" as="geometry" />
        </mxCell>
        <mxCell id="CQ1uCNhTKoEL_ttOnD3q-65" value="kardinalitas :&amp;nbsp;&lt;div&gt;1. one-to-one&lt;/div&gt;&lt;div&gt;2. one-to-many&lt;/div&gt;&lt;div&gt;3. many-to-many&lt;/div&gt;&lt;div&gt;&lt;br&gt;&lt;/div&gt;&lt;div&gt;one : 1&lt;/div&gt;&lt;div&gt;many : N/M/Lambang infinite&lt;/div&gt;&lt;div&gt;&lt;br&gt;&lt;/div&gt;&lt;div&gt;1, 2, 3, 4, 5, ..... N&lt;/div&gt;" style="shape=note;size=20;whiteSpace=wrap;html=1;" parent="1" vertex="1">
          <mxGeometry x="-790" y="-120" width="350" height="180" as="geometry" />
        </mxCell>
        <mxCell id="CQ1uCNhTKoEL_ttOnD3q-73" style="edgeStyle=orthogonalEdgeStyle;rounded=0;orthogonalLoop=1;jettySize=auto;html=1;" parent="1" source="CQ1uCNhTKoEL_ttOnD3q-72" target="CQ1uCNhTKoEL_ttOnD3q-34" edge="1">
          <mxGeometry relative="1" as="geometry" />
        </mxCell>
        <mxCell id="CQ1uCNhTKoEL_ttOnD3q-72" value="problem/masalah" style="ellipse;whiteSpace=wrap;html=1;align=center;" parent="1" vertex="1">
          <mxGeometry x="-50" y="190" width="100" height="40" as="geometry" />
        </mxCell>
        <mxCell id="CQ1uCNhTKoEL_ttOnD3q-76" style="edgeStyle=orthogonalEdgeStyle;rounded=0;orthogonalLoop=1;jettySize=auto;html=1;" parent="1" source="CQ1uCNhTKoEL_ttOnD3q-74" target="CQ1uCNhTKoEL_ttOnD3q-75" edge="1">
          <mxGeometry relative="1" as="geometry" />
        </mxCell>
        <mxCell id="CQ1uCNhTKoEL_ttOnD3q-81" value="1" style="edgeLabel;html=1;align=center;verticalAlign=middle;resizable=0;points=[];" parent="CQ1uCNhTKoEL_ttOnD3q-76" vertex="1" connectable="0">
          <mxGeometry x="0.0909" y="2" relative="1" as="geometry">
            <mxPoint x="12" y="2" as="offset" />
          </mxGeometry>
        </mxCell>
        <mxCell id="CQ1uCNhTKoEL_ttOnD3q-74" value="subscription" style="whiteSpace=wrap;html=1;align=center;" parent="1" vertex="1">
          <mxGeometry x="-570" y="350" width="100" height="40" as="geometry" />
        </mxCell>
        <mxCell id="CQ1uCNhTKoEL_ttOnD3q-77" style="edgeStyle=orthogonalEdgeStyle;rounded=0;orthogonalLoop=1;jettySize=auto;html=1;" parent="1" source="CQ1uCNhTKoEL_ttOnD3q-75" target="CQ1uCNhTKoEL_ttOnD3q-32" edge="1">
          <mxGeometry relative="1" as="geometry" />
        </mxCell>
        <mxCell id="CQ1uCNhTKoEL_ttOnD3q-83" value="N" style="edgeLabel;html=1;align=center;verticalAlign=middle;resizable=0;points=[];" parent="CQ1uCNhTKoEL_ttOnD3q-77" vertex="1" connectable="0">
          <mxGeometry x="-0.2323" y="-2" relative="1" as="geometry">
            <mxPoint x="8" y="-3" as="offset" />
          </mxGeometry>
        </mxCell>
        <mxCell id="CQ1uCNhTKoEL_ttOnD3q-75" value="memiliki" style="shape=rhombus;perimeter=rhombusPerimeter;whiteSpace=wrap;html=1;align=center;" parent="1" vertex="1">
          <mxGeometry x="-580" y="250" width="120" height="60" as="geometry" />
        </mxCell>
        <mxCell id="CQ1uCNhTKoEL_ttOnD3q-82" value="subscription :&lt;div&gt;- paket A (kecil)&lt;/div&gt;&lt;div&gt;- paket B (sedang)&lt;/div&gt;&lt;div&gt;- paket C (besar)&lt;/div&gt;&lt;div&gt;&lt;br&gt;&lt;/div&gt;&lt;div&gt;user Fulan :&amp;nbsp;&lt;/div&gt;&lt;div&gt;&lt;span style=&quot;background-color: initial;&quot;&gt;- paket A&lt;/span&gt;&lt;br&gt;&lt;/div&gt;&lt;div&gt;&lt;span style=&quot;background-color: initial;&quot;&gt;&lt;br&gt;&lt;/span&gt;&lt;/div&gt;&lt;div&gt;&lt;span style=&quot;background-color: initial;&quot;&gt;user Fulanah :&lt;/span&gt;&lt;/div&gt;&lt;div&gt;&lt;span style=&quot;background-color: initial;&quot;&gt;- paket A&lt;/span&gt;&lt;/div&gt;" style="shape=note;size=20;whiteSpace=wrap;html=1;" parent="1" vertex="1">
          <mxGeometry x="-968" y="120" width="350" height="180" as="geometry" />
        </mxCell>
        <mxCell id="CQ1uCNhTKoEL_ttOnD3q-85" style="edgeStyle=orthogonalEdgeStyle;rounded=0;orthogonalLoop=1;jettySize=auto;html=1;" parent="1" source="CQ1uCNhTKoEL_ttOnD3q-84" target="CQ1uCNhTKoEL_ttOnD3q-51" edge="1">
          <mxGeometry relative="1" as="geometry" />
        </mxCell>
        <mxCell id="CQ1uCNhTKoEL_ttOnD3q-84" value="metode pembayaran" style="ellipse;whiteSpace=wrap;html=1;align=center;" parent="1" vertex="1">
          <mxGeometry x="-390" y="-20" width="100" height="40" as="geometry" />
        </mxCell>
        <mxCell id="CQ1uCNhTKoEL_ttOnD3q-91" style="edgeStyle=orthogonalEdgeStyle;rounded=0;orthogonalLoop=1;jettySize=auto;html=1;" parent="1" source="CQ1uCNhTKoEL_ttOnD3q-86" target="CQ1uCNhTKoEL_ttOnD3q-90" edge="1">
          <mxGeometry relative="1" as="geometry" />
        </mxCell>
        <mxCell id="CQ1uCNhTKoEL_ttOnD3q-94" value="1" style="edgeLabel;html=1;align=center;verticalAlign=middle;resizable=0;points=[];" parent="CQ1uCNhTKoEL_ttOnD3q-91" vertex="1" connectable="0">
          <mxGeometry x="-0.1872" relative="1" as="geometry">
            <mxPoint y="-10" as="offset" />
          </mxGeometry>
        </mxCell>
        <mxCell id="CQ1uCNhTKoEL_ttOnD3q-86" value="Pelanggan" style="whiteSpace=wrap;html=1;align=center;" parent="1" vertex="1">
          <mxGeometry x="120" y="-360" width="100" height="40" as="geometry" />
        </mxCell>
        <mxCell id="CQ1uCNhTKoEL_ttOnD3q-87" value="Teknisi" style="whiteSpace=wrap;html=1;align=center;" parent="1" vertex="1">
          <mxGeometry x="780" y="-370" width="100" height="40" as="geometry" />
        </mxCell>
        <mxCell id="CQ1uCNhTKoEL_ttOnD3q-92" style="edgeStyle=orthogonalEdgeStyle;rounded=0;orthogonalLoop=1;jettySize=auto;html=1;" parent="1" source="CQ1uCNhTKoEL_ttOnD3q-88" target="CQ1uCNhTKoEL_ttOnD3q-90" edge="1">
          <mxGeometry relative="1" as="geometry" />
        </mxCell>
        <mxCell id="CQ1uCNhTKoEL_ttOnD3q-93" value="N" style="edgeLabel;html=1;align=center;verticalAlign=middle;resizable=0;points=[];" parent="CQ1uCNhTKoEL_ttOnD3q-92" vertex="1" connectable="0">
          <mxGeometry x="0.1169" y="2" relative="1" as="geometry">
            <mxPoint x="-2" y="-12" as="offset" />
          </mxGeometry>
        </mxCell>
        <mxCell id="CQ1uCNhTKoEL_ttOnD3q-105" style="edgeStyle=orthogonalEdgeStyle;rounded=0;orthogonalLoop=1;jettySize=auto;html=1;" parent="1" source="CQ1uCNhTKoEL_ttOnD3q-88" target="CQ1uCNhTKoEL_ttOnD3q-103" edge="1">
          <mxGeometry relative="1" as="geometry" />
        </mxCell>
        <mxCell id="CQ1uCNhTKoEL_ttOnD3q-109" value="1" style="edgeLabel;html=1;align=center;verticalAlign=middle;resizable=0;points=[];" parent="CQ1uCNhTKoEL_ttOnD3q-105" vertex="1" connectable="0">
          <mxGeometry x="-0.1169" y="-4" relative="1" as="geometry">
            <mxPoint x="6" as="offset" />
          </mxGeometry>
        </mxCell>
        <mxCell id="CQ1uCNhTKoEL_ttOnD3q-88" value="perbaikan" style="whiteSpace=wrap;html=1;align=center;" parent="1" vertex="1">
          <mxGeometry x="450" y="-360" width="100" height="40" as="geometry" />
        </mxCell>
        <mxCell id="CQ1uCNhTKoEL_ttOnD3q-89" value="ac" style="whiteSpace=wrap;html=1;align=center;" parent="1" vertex="1">
          <mxGeometry x="440" y="-120" width="100" height="40" as="geometry" />
        </mxCell>
        <mxCell id="CQ1uCNhTKoEL_ttOnD3q-90" value="Relationship" style="shape=rhombus;perimeter=rhombusPerimeter;whiteSpace=wrap;html=1;align=center;" parent="1" vertex="1">
          <mxGeometry x="280" y="-370" width="120" height="60" as="geometry" />
        </mxCell>
        <mxCell id="CQ1uCNhTKoEL_ttOnD3q-96" style="edgeStyle=orthogonalEdgeStyle;rounded=0;orthogonalLoop=1;jettySize=auto;html=1;" parent="1" source="CQ1uCNhTKoEL_ttOnD3q-95" target="CQ1uCNhTKoEL_ttOnD3q-86" edge="1">
          <mxGeometry relative="1" as="geometry" />
        </mxCell>
        <mxCell id="CQ1uCNhTKoEL_ttOnD3q-95" value="id_pelanggan" style="ellipse;whiteSpace=wrap;html=1;align=center;fontStyle=4;" parent="1" vertex="1">
          <mxGeometry x="120" y="-220" width="100" height="40" as="geometry" />
        </mxCell>
        <mxCell id="CQ1uCNhTKoEL_ttOnD3q-98" style="edgeStyle=orthogonalEdgeStyle;rounded=0;orthogonalLoop=1;jettySize=auto;html=1;" parent="1" source="CQ1uCNhTKoEL_ttOnD3q-97" target="CQ1uCNhTKoEL_ttOnD3q-88" edge="1">
          <mxGeometry relative="1" as="geometry" />
        </mxCell>
        <mxCell id="CQ1uCNhTKoEL_ttOnD3q-97" value="id_perbaikan" style="ellipse;whiteSpace=wrap;html=1;align=center;fontStyle=4;" parent="1" vertex="1">
          <mxGeometry x="450" y="-220" width="100" height="40" as="geometry" />
        </mxCell>
        <mxCell id="CQ1uCNhTKoEL_ttOnD3q-100" style="edgeStyle=orthogonalEdgeStyle;rounded=0;orthogonalLoop=1;jettySize=auto;html=1;" parent="1" source="CQ1uCNhTKoEL_ttOnD3q-99" target="CQ1uCNhTKoEL_ttOnD3q-88" edge="1">
          <mxGeometry relative="1" as="geometry" />
        </mxCell>
        <mxCell id="CQ1uCNhTKoEL_ttOnD3q-99" value="id_pelanggan" style="ellipse;whiteSpace=wrap;html=1;align=center;fontStyle=4;" parent="1" vertex="1">
          <mxGeometry x="390" y="-280" width="100" height="40" as="geometry" />
        </mxCell>
        <mxCell id="CQ1uCNhTKoEL_ttOnD3q-104" style="edgeStyle=orthogonalEdgeStyle;rounded=0;orthogonalLoop=1;jettySize=auto;html=1;" parent="1" target="CQ1uCNhTKoEL_ttOnD3q-103" edge="1">
          <mxGeometry relative="1" as="geometry">
            <mxPoint x="500" y="-500" as="sourcePoint" />
          </mxGeometry>
        </mxCell>
        <mxCell id="CQ1uCNhTKoEL_ttOnD3q-108" value="1" style="edgeLabel;html=1;align=center;verticalAlign=middle;resizable=0;points=[];" parent="CQ1uCNhTKoEL_ttOnD3q-104" vertex="1" connectable="0">
          <mxGeometry x="-0.6215" y="1" relative="1" as="geometry">
            <mxPoint x="9" as="offset" />
          </mxGeometry>
        </mxCell>
        <mxCell id="CQ1uCNhTKoEL_ttOnD3q-103" value="Relationship" style="shape=rhombus;perimeter=rhombusPerimeter;whiteSpace=wrap;html=1;align=center;" parent="1" vertex="1">
          <mxGeometry x="440" y="-470" width="120" height="60" as="geometry" />
        </mxCell>
        <mxCell id="CQ1uCNhTKoEL_ttOnD3q-107" style="edgeStyle=orthogonalEdgeStyle;rounded=0;orthogonalLoop=1;jettySize=auto;html=1;" parent="1" source="CQ1uCNhTKoEL_ttOnD3q-106" edge="1">
          <mxGeometry relative="1" as="geometry">
            <mxPoint x="550" y="-520" as="targetPoint" />
          </mxGeometry>
        </mxCell>
        <mxCell id="CQ1uCNhTKoEL_ttOnD3q-106" value="id_pembayaran" style="ellipse;whiteSpace=wrap;html=1;align=center;fontStyle=4;" parent="1" vertex="1">
          <mxGeometry x="600" y="-540" width="100" height="40" as="geometry" />
        </mxCell>
        <mxCell id="CQ1uCNhTKoEL_ttOnD3q-111" style="edgeStyle=orthogonalEdgeStyle;rounded=0;orthogonalLoop=1;jettySize=auto;html=1;" parent="1" source="CQ1uCNhTKoEL_ttOnD3q-110" target="CQ1uCNhTKoEL_ttOnD3q-88" edge="1">
          <mxGeometry relative="1" as="geometry" />
        </mxCell>
        <mxCell id="CQ1uCNhTKoEL_ttOnD3q-110" value="id_pembayaran" style="ellipse;whiteSpace=wrap;html=1;align=center;fontStyle=4;" parent="1" vertex="1">
          <mxGeometry x="600" y="-360" width="100" height="40" as="geometry" />
        </mxCell>
        <mxCell id="CQ1uCNhTKoEL_ttOnD3q-114" value="&lt;div&gt;fk : foreign key&lt;/div&gt;&lt;div&gt;&lt;br&gt;&lt;/div&gt;one to one : fk bisa disalah satu entitas (terserah)&lt;div&gt;&lt;br&gt;&lt;/div&gt;&lt;div&gt;one to many : fk harus di many&lt;/div&gt;&lt;div&gt;&lt;br&gt;&lt;/div&gt;&lt;div&gt;one to one (weak to strong) : fk harus di strong&lt;/div&gt;" style="shape=note;size=20;whiteSpace=wrap;html=1;" parent="1" vertex="1">
          <mxGeometry x="40" y="-560" width="170" height="140" as="geometry" />
        </mxCell>
        <mxCell id="CQ1uCNhTKoEL_ttOnD3q-115" value="pembayaran" style="shape=ext;margin=3;double=1;whiteSpace=wrap;html=1;align=center;" parent="1" vertex="1">
          <mxGeometry x="450" y="-540" width="100" height="40" as="geometry" />
        </mxCell>
        <mxCell id="CQ1uCNhTKoEL_ttOnD3q-116" value="strong entity" style="whiteSpace=wrap;html=1;align=center;" parent="1" vertex="1">
          <mxGeometry x="270" y="-530" width="100" height="40" as="geometry" />
        </mxCell>
        <mxCell id="CQ1uCNhTKoEL_ttOnD3q-117" value="weak Entity" style="shape=ext;margin=3;double=1;whiteSpace=wrap;html=1;align=center;" parent="1" vertex="1">
          <mxGeometry x="270" y="-460" width="100" height="40" as="geometry" />
        </mxCell>
        <mxCell id="CQ1uCNhTKoEL_ttOnD3q-131" style="edgeStyle=orthogonalEdgeStyle;rounded=0;orthogonalLoop=1;jettySize=auto;html=1;entryX=0;entryY=0.5;entryDx=0;entryDy=0;" parent="1" source="CQ1uCNhTKoEL_ttOnD3q-118" target="CQ1uCNhTKoEL_ttOnD3q-129" edge="1">
          <mxGeometry relative="1" as="geometry" />
        </mxCell>
        <mxCell id="CQ1uCNhTKoEL_ttOnD3q-134" value="1" style="edgeLabel;html=1;align=center;verticalAlign=middle;resizable=0;points=[];" parent="CQ1uCNhTKoEL_ttOnD3q-131" vertex="1" connectable="0">
          <mxGeometry x="-0.32" y="3" relative="1" as="geometry">
            <mxPoint as="offset" />
          </mxGeometry>
        </mxCell>
        <mxCell id="CQ1uCNhTKoEL_ttOnD3q-118" value="pembeli" style="whiteSpace=wrap;html=1;align=center;" parent="1" vertex="1">
          <mxGeometry x="1400" y="-280" width="100" height="40" as="geometry" />
        </mxCell>
        <mxCell id="CQ1uCNhTKoEL_ttOnD3q-119" value="pos (point of sales ) / kasir" style="shape=note;size=20;whiteSpace=wrap;html=1;" parent="1" vertex="1">
          <mxGeometry x="2050" y="-340" width="190" height="90" as="geometry" />
        </mxCell>
        <mxCell id="CQ1uCNhTKoEL_ttOnD3q-148" style="edgeStyle=orthogonalEdgeStyle;rounded=0;orthogonalLoop=1;jettySize=auto;html=1;" parent="1" source="CQ1uCNhTKoEL_ttOnD3q-120" target="CQ1uCNhTKoEL_ttOnD3q-146" edge="1">
          <mxGeometry relative="1" as="geometry" />
        </mxCell>
        <mxCell id="CQ1uCNhTKoEL_ttOnD3q-152" value="1" style="edgeLabel;html=1;align=center;verticalAlign=middle;resizable=0;points=[];" parent="CQ1uCNhTKoEL_ttOnD3q-148" vertex="1" connectable="0">
          <mxGeometry x="-0.03" y="1" relative="1" as="geometry">
            <mxPoint x="11" y="-1" as="offset" />
          </mxGeometry>
        </mxCell>
        <mxCell id="CQ1uCNhTKoEL_ttOnD3q-120" value="barang" style="whiteSpace=wrap;html=1;align=center;" parent="1" vertex="1">
          <mxGeometry x="1720" y="110" width="100" height="40" as="geometry" />
        </mxCell>
        <mxCell id="CQ1uCNhTKoEL_ttOnD3q-127" value="N-to-N : Relasi tidak normal" style="shape=note;size=20;whiteSpace=wrap;html=1;" parent="1" vertex="1">
          <mxGeometry x="1700" y="-410" width="190" height="50" as="geometry" />
        </mxCell>
        <mxCell id="CQ1uCNhTKoEL_ttOnD3q-144" style="edgeStyle=orthogonalEdgeStyle;rounded=0;orthogonalLoop=1;jettySize=auto;html=1;" parent="1" source="CQ1uCNhTKoEL_ttOnD3q-128" target="CQ1uCNhTKoEL_ttOnD3q-143" edge="1">
          <mxGeometry relative="1" as="geometry" />
        </mxCell>
        <mxCell id="CQ1uCNhTKoEL_ttOnD3q-149" value="1" style="edgeLabel;html=1;align=center;verticalAlign=middle;resizable=0;points=[];" parent="CQ1uCNhTKoEL_ttOnD3q-144" vertex="1" connectable="0">
          <mxGeometry x="-0.09" relative="1" as="geometry">
            <mxPoint x="10" y="2" as="offset" />
          </mxGeometry>
        </mxCell>
        <mxCell id="CQ1uCNhTKoEL_ttOnD3q-128" value="Pembelian" style="whiteSpace=wrap;html=1;align=center;" parent="1" vertex="1">
          <mxGeometry x="1720" y="-280" width="100" height="40" as="geometry" />
        </mxCell>
        <mxCell id="CQ1uCNhTKoEL_ttOnD3q-132" style="edgeStyle=orthogonalEdgeStyle;rounded=0;orthogonalLoop=1;jettySize=auto;html=1;entryX=0;entryY=0.5;entryDx=0;entryDy=0;" parent="1" source="CQ1uCNhTKoEL_ttOnD3q-129" target="CQ1uCNhTKoEL_ttOnD3q-128" edge="1">
          <mxGeometry relative="1" as="geometry" />
        </mxCell>
        <mxCell id="CQ1uCNhTKoEL_ttOnD3q-133" value="N" style="edgeLabel;html=1;align=center;verticalAlign=middle;resizable=0;points=[];" parent="CQ1uCNhTKoEL_ttOnD3q-132" vertex="1" connectable="0">
          <mxGeometry x="-0.016" y="-1" relative="1" as="geometry">
            <mxPoint as="offset" />
          </mxGeometry>
        </mxCell>
        <mxCell id="CQ1uCNhTKoEL_ttOnD3q-129" value="melakukan" style="shape=rhombus;perimeter=rhombusPerimeter;whiteSpace=wrap;html=1;align=center;" parent="1" vertex="1">
          <mxGeometry x="1550" y="-290" width="120" height="60" as="geometry" />
        </mxCell>
        <mxCell id="CQ1uCNhTKoEL_ttOnD3q-140" value="barang :&lt;div&gt;- sabun&lt;/div&gt;&lt;div&gt;- shampoo&lt;/div&gt;&lt;div&gt;- pensil&lt;/div&gt;&lt;div&gt;&lt;br&gt;&lt;/div&gt;&lt;div&gt;kegiatan pembelian :&lt;/div&gt;&lt;div&gt;1. sabun&lt;/div&gt;&lt;div&gt;2. sabun&lt;/div&gt;" style="shape=note;size=20;whiteSpace=wrap;html=1;" parent="1" vertex="1">
          <mxGeometry x="1900" y="-200" width="180" height="190" as="geometry" />
        </mxCell>
        <mxCell id="CQ1uCNhTKoEL_ttOnD3q-145" style="edgeStyle=orthogonalEdgeStyle;rounded=0;orthogonalLoop=1;jettySize=auto;html=1;" parent="1" source="CQ1uCNhTKoEL_ttOnD3q-141" target="CQ1uCNhTKoEL_ttOnD3q-143" edge="1">
          <mxGeometry relative="1" as="geometry" />
        </mxCell>
        <mxCell id="CQ1uCNhTKoEL_ttOnD3q-150" value="N" style="edgeLabel;html=1;align=center;verticalAlign=middle;resizable=0;points=[];" parent="CQ1uCNhTKoEL_ttOnD3q-145" vertex="1" connectable="0">
          <mxGeometry x="-0.5602" y="-1" relative="1" as="geometry">
            <mxPoint x="9" y="1" as="offset" />
          </mxGeometry>
        </mxCell>
        <mxCell id="CQ1uCNhTKoEL_ttOnD3q-147" style="edgeStyle=orthogonalEdgeStyle;rounded=0;orthogonalLoop=1;jettySize=auto;html=1;" parent="1" source="CQ1uCNhTKoEL_ttOnD3q-141" target="CQ1uCNhTKoEL_ttOnD3q-146" edge="1">
          <mxGeometry relative="1" as="geometry" />
        </mxCell>
        <mxCell id="CQ1uCNhTKoEL_ttOnD3q-151" value="N" style="edgeLabel;html=1;align=center;verticalAlign=middle;resizable=0;points=[];" parent="CQ1uCNhTKoEL_ttOnD3q-147" vertex="1" connectable="0">
          <mxGeometry x="-0.25" y="-3" relative="1" as="geometry">
            <mxPoint x="23" y="5" as="offset" />
          </mxGeometry>
        </mxCell>
        <mxCell id="CQ1uCNhTKoEL_ttOnD3q-141" value="detail pembelian" style="whiteSpace=wrap;html=1;align=center;" parent="1" vertex="1">
          <mxGeometry x="1715" y="-100" width="110" height="50" as="geometry" />
        </mxCell>
        <mxCell id="CQ1uCNhTKoEL_ttOnD3q-142" value="detail pembelian&lt;div&gt;item pembelian&lt;/div&gt;&lt;div&gt;pembelian barang&lt;/div&gt;&lt;div&gt;barang pembelian&lt;/div&gt;" style="shape=note;size=20;whiteSpace=wrap;html=1;" parent="1" vertex="1">
          <mxGeometry x="1500" y="-160" width="100" height="100" as="geometry" />
        </mxCell>
        <mxCell id="CQ1uCNhTKoEL_ttOnD3q-143" value="Relationship" style="shape=rhombus;perimeter=rhombusPerimeter;whiteSpace=wrap;html=1;align=center;" parent="1" vertex="1">
          <mxGeometry x="1710" y="-200" width="120" height="60" as="geometry" />
        </mxCell>
        <mxCell id="CQ1uCNhTKoEL_ttOnD3q-146" value="Relationship" style="shape=rhombus;perimeter=rhombusPerimeter;whiteSpace=wrap;html=1;align=center;" parent="1" vertex="1">
          <mxGeometry x="1710" width="120" height="60" as="geometry" />
        </mxCell>
        <mxCell id="CQ1uCNhTKoEL_ttOnD3q-153" value="2 aturan normalisasi :&amp;nbsp;&lt;div&gt;&lt;br&gt;&lt;/div&gt;&lt;div&gt;aturan 1 (apabila ada makhluk hidup) :&lt;/div&gt;&lt;div&gt;&lt;span style=&quot;background-color: initial;&quot;&gt;- nama relasi diubah ke kata pasif&lt;/span&gt;&lt;/div&gt;&lt;div&gt;&lt;span style=&quot;background-color: initial;&quot;&gt;- relasi dijadiin entitas&lt;/span&gt;&lt;/div&gt;&lt;div&gt;&lt;span style=&quot;background-color: initial;&quot;&gt;- kardinalitas harus di analisis lagi&lt;/span&gt;&lt;/div&gt;&lt;div&gt;&lt;span style=&quot;background-color: initial;&quot;&gt;&lt;br&gt;&lt;/span&gt;&lt;/div&gt;&lt;div&gt;&lt;span style=&quot;background-color: initial;&quot;&gt;aturan 2 (apabila tidak ada makhluk hidup) :&amp;nbsp;&lt;/span&gt;&lt;/div&gt;&lt;div&gt;&lt;span style=&quot;background-color: initial;&quot;&gt;- relasi dijadiin entitas&lt;/span&gt;&lt;/div&gt;&lt;div&gt;&lt;span style=&quot;background-color: initial;&quot;&gt;- nama entitas bisa gabungan dari 2 entitas yang terhubung&lt;/span&gt;&lt;/div&gt;&lt;div&gt;&lt;span style=&quot;background-color: initial;&quot;&gt;- kardinalitas harus one to many, dengan entitas hasil normalisasi sebagai many&lt;/span&gt;&lt;/div&gt;" style="shape=note;size=20;whiteSpace=wrap;html=1;" parent="1" vertex="1">
          <mxGeometry x="1925" y="-740" width="350" height="250" as="geometry" />
        </mxCell>
        <mxCell id="CQ1uCNhTKoEL_ttOnD3q-154" value="urutan membuat ERD :&lt;div&gt;1. menentukan entitas&lt;/div&gt;&lt;div&gt;2. memetakan relasi antar entitas&lt;/div&gt;&lt;div&gt;3. memetakan kardinalitas&lt;/div&gt;&lt;div&gt;4.&amp;nbsp;&lt;span style=&quot;background-color: initial;&quot;&gt;menormalisasi many to many&lt;/span&gt;&lt;/div&gt;&lt;div&gt;5. menentukan atribut dan primary key&lt;/div&gt;&lt;div&gt;6. menentukan foreign key&lt;/div&gt;" style="shape=note;size=20;whiteSpace=wrap;html=1;" parent="1" vertex="1">
          <mxGeometry x="2130" y="-210" width="190" height="150" as="geometry" />
        </mxCell>
        <mxCell id="CQ1uCNhTKoEL_ttOnD3q-155" value="fitur sebaiknya tidak ada, karna susah / ribet :&lt;div&gt;1. komentar&lt;/div&gt;&lt;div&gt;2. chat&lt;br&gt;&lt;div&gt;3. payment gateway (mending fake)&lt;/div&gt;&lt;/div&gt;" style="shape=note;size=20;whiteSpace=wrap;html=1;" parent="1" vertex="1">
          <mxGeometry x="1540" y="-730" width="305" height="200" as="geometry" />
        </mxCell>
        <mxCell id="CQ1uCNhTKoEL_ttOnD3q-156" value="Nama : Fulan&lt;div&gt;Judul : Aplikasi Service AC&lt;/div&gt;&lt;div&gt;Desc : client dapat pesan jasa service ac melalui app,&lt;/div&gt;&lt;div&gt;fitur :&amp;nbsp;&lt;/div&gt;&lt;div&gt;a.&amp;nbsp;&lt;/div&gt;&lt;div&gt;b.&lt;/div&gt;&lt;div&gt;c.&lt;/div&gt;" style="shape=note;size=20;whiteSpace=wrap;html=1;" parent="1" vertex="1">
          <mxGeometry x="960" y="-340" width="380" height="140" as="geometry" />
        </mxCell>
        <mxCell id="CQ1uCNhTKoEL_ttOnD3q-157" value="monolith :&amp;nbsp;&lt;div&gt;1 app 1 service/code/project&lt;/div&gt;" style="whiteSpace=wrap;html=1;align=center;" parent="1" vertex="1">
          <mxGeometry x="2600" y="-490" width="140" height="160" as="geometry" />
        </mxCell>
        <mxCell id="CQ1uCNhTKoEL_ttOnD3q-158" value="microservices :&amp;nbsp;&lt;div&gt;1 app lebih dari 1 service/code/project&lt;/div&gt;" style="whiteSpace=wrap;html=1;align=center;" parent="1" vertex="1">
          <mxGeometry x="2600" y="-310" width="140" height="60" as="geometry" />
        </mxCell>
        <mxCell id="CQ1uCNhTKoEL_ttOnD3q-159" value="Backend (sistem)" style="whiteSpace=wrap;html=1;align=center;" parent="1" vertex="1">
          <mxGeometry x="2760" y="-360" width="100" height="40" as="geometry" />
        </mxCell>
        <mxCell id="CQ1uCNhTKoEL_ttOnD3q-160" value="Frontend (tampilan)" style="whiteSpace=wrap;html=1;align=center;" parent="1" vertex="1">
          <mxGeometry x="2760" y="-300" width="100" height="40" as="geometry" />
        </mxCell>
        <mxCell id="CQ1uCNhTKoEL_ttOnD3q-164" style="edgeStyle=orthogonalEdgeStyle;rounded=0;orthogonalLoop=1;jettySize=auto;html=1;" parent="1" source="CQ1uCNhTKoEL_ttOnD3q-161" target="CQ1uCNhTKoEL_ttOnD3q-162" edge="1">
          <mxGeometry relative="1" as="geometry" />
        </mxCell>
        <mxCell id="CQ1uCNhTKoEL_ttOnD3q-161" value="Backend" style="whiteSpace=wrap;html=1;align=center;" parent="1" vertex="1">
          <mxGeometry x="2975" y="-470" width="100" height="40" as="geometry" />
        </mxCell>
        <mxCell id="CQ1uCNhTKoEL_ttOnD3q-162" value="Backend" style="whiteSpace=wrap;html=1;align=center;" parent="1" vertex="1">
          <mxGeometry x="3110" y="-470" width="100" height="40" as="geometry" />
        </mxCell>
        <mxCell id="CQ1uCNhTKoEL_ttOnD3q-165" style="edgeStyle=orthogonalEdgeStyle;rounded=0;orthogonalLoop=1;jettySize=auto;html=1;" parent="1" source="CQ1uCNhTKoEL_ttOnD3q-163" target="CQ1uCNhTKoEL_ttOnD3q-162" edge="1">
          <mxGeometry relative="1" as="geometry" />
        </mxCell>
        <mxCell id="CQ1uCNhTKoEL_ttOnD3q-163" value="Backend" style="whiteSpace=wrap;html=1;align=center;" parent="1" vertex="1">
          <mxGeometry x="3250" y="-470" width="100" height="40" as="geometry" />
        </mxCell>
        <mxCell id="CQ1uCNhTKoEL_ttOnD3q-169" style="edgeStyle=orthogonalEdgeStyle;rounded=0;orthogonalLoop=1;jettySize=auto;html=1;entryX=0;entryY=0.5;entryDx=0;entryDy=0;" parent="1" source="CQ1uCNhTKoEL_ttOnD3q-166" target="CQ1uCNhTKoEL_ttOnD3q-167" edge="1">
          <mxGeometry relative="1" as="geometry" />
        </mxCell>
        <mxCell id="CQ1uCNhTKoEL_ttOnD3q-166" value="Frontend" style="whiteSpace=wrap;html=1;align=center;" parent="1" vertex="1">
          <mxGeometry x="2975" y="-405" width="100" height="40" as="geometry" />
        </mxCell>
        <mxCell id="CQ1uCNhTKoEL_ttOnD3q-167" value="Frontend" style="whiteSpace=wrap;html=1;align=center;" parent="1" vertex="1">
          <mxGeometry x="3110" y="-405" width="100" height="40" as="geometry" />
        </mxCell>
        <mxCell id="CQ1uCNhTKoEL_ttOnD3q-170" style="edgeStyle=orthogonalEdgeStyle;rounded=0;orthogonalLoop=1;jettySize=auto;html=1;" parent="1" source="CQ1uCNhTKoEL_ttOnD3q-168" target="CQ1uCNhTKoEL_ttOnD3q-167" edge="1">
          <mxGeometry relative="1" as="geometry" />
        </mxCell>
        <mxCell id="CQ1uCNhTKoEL_ttOnD3q-168" value="Frontend" style="whiteSpace=wrap;html=1;align=center;" parent="1" vertex="1">
          <mxGeometry x="3250" y="-405" width="100" height="40" as="geometry" />
        </mxCell>
        <mxCell id="E12BYbz-8O2NPFTXzXGj-1" value="Makhluk Hidup" style="whiteSpace=wrap;html=1;align=center;" parent="1" vertex="1">
          <mxGeometry x="-1620" y="-780" width="100" height="40" as="geometry" />
        </mxCell>
        <mxCell id="E12BYbz-8O2NPFTXzXGj-2" value="Kegiatan" style="whiteSpace=wrap;html=1;align=center;" parent="1" vertex="1">
          <mxGeometry x="-1620" y="-700" width="100" height="40" as="geometry" />
        </mxCell>
        <mxCell id="E12BYbz-8O2NPFTXzXGj-3" value="Objek / Benda" style="whiteSpace=wrap;html=1;align=center;" parent="1" vertex="1">
          <mxGeometry x="-1620" y="-620" width="100" height="40" as="geometry" />
        </mxCell>
        <mxCell id="E12BYbz-8O2NPFTXzXGj-4" value="Siapa saja yang berkaitan ?" style="whiteSpace=wrap;html=1;align=center;" parent="1" vertex="1">
          <mxGeometry x="-1490" y="-780" width="340" height="40" as="geometry" />
        </mxCell>
        <mxCell id="E12BYbz-8O2NPFTXzXGj-5" value="Kegiatan apa yang dilakukan ?" style="whiteSpace=wrap;html=1;align=center;" parent="1" vertex="1">
          <mxGeometry x="-1490" y="-700" width="340" height="40" as="geometry" />
        </mxCell>
        <mxCell id="E12BYbz-8O2NPFTXzXGj-6" value="Objek / Benda penunjang apa untuk kegiatan tersebut ?" style="whiteSpace=wrap;html=1;align=center;" parent="1" vertex="1">
          <mxGeometry x="-1490" y="-620" width="340" height="40" as="geometry" />
        </mxCell>
        <mxCell id="E12BYbz-8O2NPFTXzXGj-7" value="ERD : Klinik Hewan&lt;div&gt;&lt;br&gt;&lt;/div&gt;&lt;div&gt;Berobat / memeriksakan hewan peliharaan&lt;/div&gt;" style="shape=note;size=20;whiteSpace=wrap;html=1;" parent="1" vertex="1">
          <mxGeometry x="-1580" y="-540" width="230" height="130" as="geometry" />
        </mxCell>
        <mxCell id="E12BYbz-8O2NPFTXzXGj-9" value="animals" style="whiteSpace=wrap;html=1;align=center;" parent="1" vertex="1">
          <mxGeometry x="-1280" y="-1400" width="100" height="40" as="geometry" />
        </mxCell>
        <mxCell id="E12BYbz-8O2NPFTXzXGj-25" style="edgeStyle=orthogonalEdgeStyle;rounded=0;orthogonalLoop=1;jettySize=auto;html=1;" parent="1" source="E12BYbz-8O2NPFTXzXGj-11" target="E12BYbz-8O2NPFTXzXGj-13" edge="1">
          <mxGeometry relative="1" as="geometry" />
        </mxCell>
        <mxCell id="E12BYbz-8O2NPFTXzXGj-28" value="N" style="edgeLabel;html=1;align=center;verticalAlign=middle;resizable=0;points=[];" parent="E12BYbz-8O2NPFTXzXGj-25" vertex="1" connectable="0">
          <mxGeometry x="-0.007" y="-1" relative="1" as="geometry">
            <mxPoint y="9" as="offset" />
          </mxGeometry>
        </mxCell>
        <mxCell id="E12BYbz-8O2NPFTXzXGj-11" value="checkup" style="whiteSpace=wrap;html=1;align=center;" parent="1" vertex="1">
          <mxGeometry x="-1610" y="-1400" width="100" height="40" as="geometry" />
        </mxCell>
        <mxCell id="E12BYbz-8O2NPFTXzXGj-26" style="edgeStyle=orthogonalEdgeStyle;rounded=0;orthogonalLoop=1;jettySize=auto;html=1;entryX=0;entryY=0.5;entryDx=0;entryDy=0;" parent="1" source="E12BYbz-8O2NPFTXzXGj-13" target="E12BYbz-8O2NPFTXzXGj-9" edge="1">
          <mxGeometry relative="1" as="geometry" />
        </mxCell>
        <mxCell id="E12BYbz-8O2NPFTXzXGj-27" value="1" style="edgeLabel;html=1;align=center;verticalAlign=middle;resizable=0;points=[];" parent="E12BYbz-8O2NPFTXzXGj-26" vertex="1" connectable="0">
          <mxGeometry x="-0.1032" y="-1" relative="1" as="geometry">
            <mxPoint y="-21" as="offset" />
          </mxGeometry>
        </mxCell>
        <mxCell id="E12BYbz-8O2NPFTXzXGj-13" value="do" style="shape=rhombus;perimeter=rhombusPerimeter;whiteSpace=wrap;html=1;align=center;" parent="1" vertex="1">
          <mxGeometry x="-1450" y="-1410" width="120" height="60" as="geometry" />
        </mxCell>
        <mxCell id="E12BYbz-8O2NPFTXzXGj-17" style="edgeStyle=orthogonalEdgeStyle;rounded=0;orthogonalLoop=1;jettySize=auto;html=1;" parent="1" source="E12BYbz-8O2NPFTXzXGj-15" target="E12BYbz-8O2NPFTXzXGj-16" edge="1">
          <mxGeometry relative="1" as="geometry" />
        </mxCell>
        <mxCell id="E12BYbz-8O2NPFTXzXGj-19" value="1" style="edgeLabel;html=1;align=center;verticalAlign=middle;resizable=0;points=[];" parent="E12BYbz-8O2NPFTXzXGj-17" vertex="1" connectable="0">
          <mxGeometry x="-0.4042" y="-3" relative="1" as="geometry">
            <mxPoint x="23" y="5" as="offset" />
          </mxGeometry>
        </mxCell>
        <mxCell id="E12BYbz-8O2NPFTXzXGj-153" style="edgeStyle=orthogonalEdgeStyle;rounded=0;orthogonalLoop=1;jettySize=auto;html=1;" parent="1" source="E12BYbz-8O2NPFTXzXGj-15" target="E12BYbz-8O2NPFTXzXGj-152" edge="1">
          <mxGeometry relative="1" as="geometry" />
        </mxCell>
        <mxCell id="E12BYbz-8O2NPFTXzXGj-156" value="N" style="edgeLabel;html=1;align=center;verticalAlign=middle;resizable=0;points=[];" parent="E12BYbz-8O2NPFTXzXGj-153" vertex="1" connectable="0">
          <mxGeometry x="-0.1048" relative="1" as="geometry">
            <mxPoint y="-10" as="offset" />
          </mxGeometry>
        </mxCell>
        <mxCell id="E12BYbz-8O2NPFTXzXGj-15" value="payment" style="whiteSpace=wrap;html=1;align=center;" parent="1" vertex="1">
          <mxGeometry x="-1610" y="-1610" width="100" height="40" as="geometry" />
        </mxCell>
        <mxCell id="E12BYbz-8O2NPFTXzXGj-18" style="edgeStyle=orthogonalEdgeStyle;rounded=0;orthogonalLoop=1;jettySize=auto;html=1;" parent="1" source="E12BYbz-8O2NPFTXzXGj-16" target="E12BYbz-8O2NPFTXzXGj-11" edge="1">
          <mxGeometry relative="1" as="geometry" />
        </mxCell>
        <mxCell id="E12BYbz-8O2NPFTXzXGj-20" value="1" style="edgeLabel;html=1;align=center;verticalAlign=middle;resizable=0;points=[];" parent="E12BYbz-8O2NPFTXzXGj-18" vertex="1" connectable="0">
          <mxGeometry x="-0.1351" y="3" relative="1" as="geometry">
            <mxPoint x="17" y="4" as="offset" />
          </mxGeometry>
        </mxCell>
        <mxCell id="E12BYbz-8O2NPFTXzXGj-16" value="have" style="shape=rhombus;perimeter=rhombusPerimeter;whiteSpace=wrap;html=1;align=center;" parent="1" vertex="1">
          <mxGeometry x="-1620" y="-1520" width="120" height="60" as="geometry" />
        </mxCell>
        <mxCell id="E12BYbz-8O2NPFTXzXGj-40" style="edgeStyle=orthogonalEdgeStyle;rounded=0;orthogonalLoop=1;jettySize=auto;html=1;" parent="1" source="E12BYbz-8O2NPFTXzXGj-37" target="E12BYbz-8O2NPFTXzXGj-39" edge="1">
          <mxGeometry relative="1" as="geometry">
            <Array as="points">
              <mxPoint x="-1390" y="-1240" />
            </Array>
          </mxGeometry>
        </mxCell>
        <mxCell id="E12BYbz-8O2NPFTXzXGj-135" value="1" style="edgeLabel;html=1;align=center;verticalAlign=middle;resizable=0;points=[];" parent="E12BYbz-8O2NPFTXzXGj-40" vertex="1" connectable="0">
          <mxGeometry x="0.3267" y="4" relative="1" as="geometry">
            <mxPoint y="6" as="offset" />
          </mxGeometry>
        </mxCell>
        <mxCell id="E12BYbz-8O2NPFTXzXGj-41" style="edgeStyle=orthogonalEdgeStyle;rounded=0;orthogonalLoop=1;jettySize=auto;html=1;" parent="1" source="E12BYbz-8O2NPFTXzXGj-37" target="E12BYbz-8O2NPFTXzXGj-38" edge="1">
          <mxGeometry relative="1" as="geometry">
            <Array as="points">
              <mxPoint x="-1380" y="-1240" />
            </Array>
          </mxGeometry>
        </mxCell>
        <mxCell id="E12BYbz-8O2NPFTXzXGj-133" value="1" style="edgeLabel;html=1;align=center;verticalAlign=middle;resizable=0;points=[];" parent="E12BYbz-8O2NPFTXzXGj-41" vertex="1" connectable="0">
          <mxGeometry x="0.4836" y="-3" relative="1" as="geometry">
            <mxPoint x="-3" y="7" as="offset" />
          </mxGeometry>
        </mxCell>
        <mxCell id="E12BYbz-8O2NPFTXzXGj-46" style="edgeStyle=orthogonalEdgeStyle;rounded=0;orthogonalLoop=1;jettySize=auto;html=1;entryX=0.5;entryY=0;entryDx=0;entryDy=0;" parent="1" source="E12BYbz-8O2NPFTXzXGj-37" target="E12BYbz-8O2NPFTXzXGj-45" edge="1">
          <mxGeometry relative="1" as="geometry" />
        </mxCell>
        <mxCell id="E12BYbz-8O2NPFTXzXGj-49" value="N" style="edgeLabel;html=1;align=center;verticalAlign=middle;resizable=0;points=[];" parent="E12BYbz-8O2NPFTXzXGj-46" vertex="1" connectable="0">
          <mxGeometry x="-0.1078" y="3" relative="1" as="geometry">
            <mxPoint x="7" as="offset" />
          </mxGeometry>
        </mxCell>
        <mxCell id="E12BYbz-8O2NPFTXzXGj-37" value="users" style="whiteSpace=wrap;html=1;align=center;" parent="1" vertex="1">
          <mxGeometry x="-1440" y="-1150" width="100" height="40" as="geometry" />
        </mxCell>
        <mxCell id="E12BYbz-8O2NPFTXzXGj-42" value="N" style="edgeStyle=orthogonalEdgeStyle;rounded=0;orthogonalLoop=1;jettySize=auto;html=1;" parent="1" source="E12BYbz-8O2NPFTXzXGj-38" target="E12BYbz-8O2NPFTXzXGj-9" edge="1">
          <mxGeometry relative="1" as="geometry" />
        </mxCell>
        <mxCell id="E12BYbz-8O2NPFTXzXGj-38" value="have" style="shape=rhombus;perimeter=rhombusPerimeter;whiteSpace=wrap;html=1;align=center;" parent="1" vertex="1">
          <mxGeometry x="-1290" y="-1270" width="120" height="60" as="geometry" />
        </mxCell>
        <mxCell id="E12BYbz-8O2NPFTXzXGj-43" style="edgeStyle=orthogonalEdgeStyle;rounded=0;orthogonalLoop=1;jettySize=auto;html=1;" parent="1" source="E12BYbz-8O2NPFTXzXGj-39" target="E12BYbz-8O2NPFTXzXGj-11" edge="1">
          <mxGeometry relative="1" as="geometry" />
        </mxCell>
        <mxCell id="E12BYbz-8O2NPFTXzXGj-134" value="N" style="edgeLabel;html=1;align=center;verticalAlign=middle;resizable=0;points=[];" parent="E12BYbz-8O2NPFTXzXGj-43" vertex="1" connectable="0">
          <mxGeometry x="-0.3735" y="-4" relative="1" as="geometry">
            <mxPoint as="offset" />
          </mxGeometry>
        </mxCell>
        <mxCell id="E12BYbz-8O2NPFTXzXGj-39" value="do" style="shape=rhombus;perimeter=rhombusPerimeter;whiteSpace=wrap;html=1;align=center;" parent="1" vertex="1">
          <mxGeometry x="-1620" y="-1270" width="120" height="60" as="geometry" />
        </mxCell>
        <mxCell id="E12BYbz-8O2NPFTXzXGj-44" value="roles" style="whiteSpace=wrap;html=1;align=center;" parent="1" vertex="1">
          <mxGeometry x="-1440" y="-940" width="100" height="40" as="geometry" />
        </mxCell>
        <mxCell id="E12BYbz-8O2NPFTXzXGj-47" style="edgeStyle=orthogonalEdgeStyle;rounded=0;orthogonalLoop=1;jettySize=auto;html=1;" parent="1" source="E12BYbz-8O2NPFTXzXGj-45" target="E12BYbz-8O2NPFTXzXGj-44" edge="1">
          <mxGeometry relative="1" as="geometry" />
        </mxCell>
        <mxCell id="E12BYbz-8O2NPFTXzXGj-48" value="1" style="edgeLabel;html=1;align=center;verticalAlign=middle;resizable=0;points=[];" parent="E12BYbz-8O2NPFTXzXGj-47" vertex="1" connectable="0">
          <mxGeometry x="-0.4" y="4" relative="1" as="geometry">
            <mxPoint x="6" y="5" as="offset" />
          </mxGeometry>
        </mxCell>
        <mxCell id="E12BYbz-8O2NPFTXzXGj-45" value="have" style="shape=rhombus;perimeter=rhombusPerimeter;whiteSpace=wrap;html=1;align=center;" parent="1" vertex="1">
          <mxGeometry x="-1450" y="-1050" width="120" height="60" as="geometry" />
        </mxCell>
        <mxCell id="E12BYbz-8O2NPFTXzXGj-53" style="edgeStyle=orthogonalEdgeStyle;rounded=0;orthogonalLoop=1;jettySize=auto;html=1;entryX=1;entryY=0.5;entryDx=0;entryDy=0;" parent="1" source="E12BYbz-8O2NPFTXzXGj-50" target="E12BYbz-8O2NPFTXzXGj-44" edge="1">
          <mxGeometry relative="1" as="geometry" />
        </mxCell>
        <mxCell id="E12BYbz-8O2NPFTXzXGj-50" value="id_role" style="ellipse;whiteSpace=wrap;html=1;align=center;fontStyle=4;" parent="1" vertex="1">
          <mxGeometry x="-1320" y="-860" width="100" height="40" as="geometry" />
        </mxCell>
        <mxCell id="E12BYbz-8O2NPFTXzXGj-52" style="edgeStyle=orthogonalEdgeStyle;rounded=0;orthogonalLoop=1;jettySize=auto;html=1;entryX=0;entryY=0.5;entryDx=0;entryDy=0;" parent="1" source="E12BYbz-8O2NPFTXzXGj-51" target="E12BYbz-8O2NPFTXzXGj-44" edge="1">
          <mxGeometry relative="1" as="geometry" />
        </mxCell>
        <mxCell id="E12BYbz-8O2NPFTXzXGj-51" value="name" style="ellipse;whiteSpace=wrap;html=1;align=center;" parent="1" vertex="1">
          <mxGeometry x="-1550" y="-850" width="100" height="40" as="geometry" />
        </mxCell>
        <mxCell id="E12BYbz-8O2NPFTXzXGj-54" value="roles&amp;nbsp;&lt;div&gt;id - name&lt;/div&gt;&lt;div&gt;1 - admin&lt;/div&gt;&lt;div&gt;2 - dokter&lt;/div&gt;&lt;div&gt;3 - pemilik hewan&lt;/div&gt;" style="shape=note;size=20;whiteSpace=wrap;html=1;" parent="1" vertex="1">
          <mxGeometry x="-990" y="-1025" width="260" height="170" as="geometry" />
        </mxCell>
        <mxCell id="E12BYbz-8O2NPFTXzXGj-65" style="edgeStyle=orthogonalEdgeStyle;rounded=0;orthogonalLoop=1;jettySize=auto;html=1;" parent="1" source="E12BYbz-8O2NPFTXzXGj-55" target="E12BYbz-8O2NPFTXzXGj-37" edge="1">
          <mxGeometry relative="1" as="geometry">
            <Array as="points">
              <mxPoint x="-1710" y="-1150" />
            </Array>
          </mxGeometry>
        </mxCell>
        <mxCell id="E12BYbz-8O2NPFTXzXGj-55" value="id_user" style="ellipse;whiteSpace=wrap;html=1;align=center;fontStyle=4;" parent="1" vertex="1">
          <mxGeometry x="-1760" y="-1200" width="100" height="40" as="geometry" />
        </mxCell>
        <mxCell id="E12BYbz-8O2NPFTXzXGj-66" style="edgeStyle=orthogonalEdgeStyle;rounded=0;orthogonalLoop=1;jettySize=auto;html=1;" parent="1" source="E12BYbz-8O2NPFTXzXGj-56" target="E12BYbz-8O2NPFTXzXGj-37" edge="1">
          <mxGeometry relative="1" as="geometry" />
        </mxCell>
        <mxCell id="E12BYbz-8O2NPFTXzXGj-56" value="nama" style="ellipse;whiteSpace=wrap;html=1;align=center;" parent="1" vertex="1">
          <mxGeometry x="-1100" y="-1150" width="100" height="40" as="geometry" />
        </mxCell>
        <mxCell id="E12BYbz-8O2NPFTXzXGj-67" style="edgeStyle=orthogonalEdgeStyle;rounded=0;orthogonalLoop=1;jettySize=auto;html=1;" parent="1" source="E12BYbz-8O2NPFTXzXGj-57" target="E12BYbz-8O2NPFTXzXGj-37" edge="1">
          <mxGeometry relative="1" as="geometry">
            <Array as="points">
              <mxPoint x="-1130" y="-1120" />
            </Array>
          </mxGeometry>
        </mxCell>
        <mxCell id="E12BYbz-8O2NPFTXzXGj-57" value="email" style="ellipse;whiteSpace=wrap;html=1;align=center;" parent="1" vertex="1">
          <mxGeometry x="-1180" y="-1040" width="100" height="40" as="geometry" />
        </mxCell>
        <mxCell id="E12BYbz-8O2NPFTXzXGj-68" style="edgeStyle=orthogonalEdgeStyle;rounded=0;orthogonalLoop=1;jettySize=auto;html=1;" parent="1" source="E12BYbz-8O2NPFTXzXGj-59" target="E12BYbz-8O2NPFTXzXGj-37" edge="1">
          <mxGeometry relative="1" as="geometry">
            <Array as="points">
              <mxPoint x="-1140" y="-1140" />
            </Array>
          </mxGeometry>
        </mxCell>
        <mxCell id="E12BYbz-8O2NPFTXzXGj-59" value="nomor_hp" style="ellipse;whiteSpace=wrap;html=1;align=center;" parent="1" vertex="1">
          <mxGeometry x="-1190" y="-1200" width="100" height="40" as="geometry" />
        </mxCell>
        <mxCell id="E12BYbz-8O2NPFTXzXGj-64" style="edgeStyle=orthogonalEdgeStyle;rounded=0;orthogonalLoop=1;jettySize=auto;html=1;" parent="1" source="E12BYbz-8O2NPFTXzXGj-60" target="E12BYbz-8O2NPFTXzXGj-37" edge="1">
          <mxGeometry relative="1" as="geometry">
            <Array as="points">
              <mxPoint x="-1650" y="-1110" />
            </Array>
          </mxGeometry>
        </mxCell>
        <mxCell id="E12BYbz-8O2NPFTXzXGj-60" value="alamat" style="ellipse;whiteSpace=wrap;html=1;align=center;" parent="1" vertex="1">
          <mxGeometry x="-1700" y="-1060" width="100" height="40" as="geometry" />
        </mxCell>
        <mxCell id="E12BYbz-8O2NPFTXzXGj-63" style="edgeStyle=orthogonalEdgeStyle;rounded=0;orthogonalLoop=1;jettySize=auto;html=1;" parent="1" source="E12BYbz-8O2NPFTXzXGj-61" target="E12BYbz-8O2NPFTXzXGj-37" edge="1">
          <mxGeometry relative="1" as="geometry">
            <Array as="points">
              <mxPoint x="-1780" y="-1130" />
            </Array>
          </mxGeometry>
        </mxCell>
        <mxCell id="E12BYbz-8O2NPFTXzXGj-61" value="password" style="ellipse;whiteSpace=wrap;html=1;align=center;" parent="1" vertex="1">
          <mxGeometry x="-1830" y="-1100" width="100" height="40" as="geometry" />
        </mxCell>
        <mxCell id="E12BYbz-8O2NPFTXzXGj-79" style="edgeStyle=orthogonalEdgeStyle;rounded=0;orthogonalLoop=1;jettySize=auto;html=1;" parent="1" source="E12BYbz-8O2NPFTXzXGj-71" target="E12BYbz-8O2NPFTXzXGj-9" edge="1">
          <mxGeometry relative="1" as="geometry" />
        </mxCell>
        <mxCell id="E12BYbz-8O2NPFTXzXGj-71" value="id_animal" style="ellipse;whiteSpace=wrap;html=1;align=center;fontStyle=4;" parent="1" vertex="1">
          <mxGeometry x="-1380" y="-1510" width="100" height="40" as="geometry" />
        </mxCell>
        <mxCell id="E12BYbz-8O2NPFTXzXGj-82" style="edgeStyle=orthogonalEdgeStyle;rounded=0;orthogonalLoop=1;jettySize=auto;html=1;" parent="1" source="E12BYbz-8O2NPFTXzXGj-73" target="E12BYbz-8O2NPFTXzXGj-9" edge="1">
          <mxGeometry relative="1" as="geometry">
            <Array as="points">
              <mxPoint x="-1060" y="-1330" />
              <mxPoint x="-1200" y="-1330" />
            </Array>
          </mxGeometry>
        </mxCell>
        <mxCell id="E12BYbz-8O2NPFTXzXGj-73" value="dob&lt;div&gt;(date of birth)&lt;/div&gt;" style="ellipse;whiteSpace=wrap;html=1;align=center;" parent="1" vertex="1">
          <mxGeometry x="-1110" y="-1310" width="100" height="40" as="geometry" />
        </mxCell>
        <mxCell id="E12BYbz-8O2NPFTXzXGj-81" style="edgeStyle=orthogonalEdgeStyle;rounded=0;orthogonalLoop=1;jettySize=auto;html=1;" parent="1" source="E12BYbz-8O2NPFTXzXGj-74" target="E12BYbz-8O2NPFTXzXGj-9" edge="1">
          <mxGeometry relative="1" as="geometry">
            <Array as="points">
              <mxPoint x="-1120" y="-1440" />
              <mxPoint x="-1230" y="-1440" />
            </Array>
          </mxGeometry>
        </mxCell>
        <mxCell id="E12BYbz-8O2NPFTXzXGj-74" value="deleted_at" style="ellipse;whiteSpace=wrap;html=1;align=center;" parent="1" vertex="1">
          <mxGeometry x="-1120" y="-1540" width="100" height="40" as="geometry" />
        </mxCell>
        <mxCell id="E12BYbz-8O2NPFTXzXGj-80" style="edgeStyle=orthogonalEdgeStyle;rounded=0;orthogonalLoop=1;jettySize=auto;html=1;" parent="1" source="E12BYbz-8O2NPFTXzXGj-75" target="E12BYbz-8O2NPFTXzXGj-9" edge="1">
          <mxGeometry relative="1" as="geometry" />
        </mxCell>
        <mxCell id="E12BYbz-8O2NPFTXzXGj-75" value="nama" style="ellipse;whiteSpace=wrap;html=1;align=center;" parent="1" vertex="1">
          <mxGeometry x="-1325" y="-1570" width="100" height="40" as="geometry" />
        </mxCell>
        <mxCell id="E12BYbz-8O2NPFTXzXGj-119" style="edgeStyle=orthogonalEdgeStyle;rounded=0;orthogonalLoop=1;jettySize=auto;html=1;" parent="1" source="E12BYbz-8O2NPFTXzXGj-77" target="E12BYbz-8O2NPFTXzXGj-9" edge="1">
          <mxGeometry relative="1" as="geometry">
            <Array as="points">
              <mxPoint x="-1400" y="-1440" />
              <mxPoint x="-1230" y="-1440" />
            </Array>
          </mxGeometry>
        </mxCell>
        <mxCell id="E12BYbz-8O2NPFTXzXGj-77" value="makanan" style="ellipse;whiteSpace=wrap;html=1;align=center;" parent="1" vertex="1">
          <mxGeometry x="-1460" y="-1500" width="100" height="40" as="geometry" />
        </mxCell>
        <mxCell id="E12BYbz-8O2NPFTXzXGj-84" style="edgeStyle=orthogonalEdgeStyle;rounded=0;orthogonalLoop=1;jettySize=auto;html=1;" parent="1" source="E12BYbz-8O2NPFTXzXGj-83" target="E12BYbz-8O2NPFTXzXGj-73" edge="1">
          <mxGeometry relative="1" as="geometry" />
        </mxCell>
        <mxCell id="E12BYbz-8O2NPFTXzXGj-83" value="age" style="ellipse;whiteSpace=wrap;html=1;align=center;" parent="1" vertex="1">
          <mxGeometry x="-940" y="-1310" width="100" height="40" as="geometry" />
        </mxCell>
        <mxCell id="E12BYbz-8O2NPFTXzXGj-86" value="specieses" style="whiteSpace=wrap;html=1;align=center;" parent="1" vertex="1">
          <mxGeometry x="-760" y="-1400" width="100" height="40" as="geometry" />
        </mxCell>
        <mxCell id="E12BYbz-8O2NPFTXzXGj-94" style="edgeStyle=orthogonalEdgeStyle;rounded=0;orthogonalLoop=1;jettySize=auto;html=1;" parent="1" source="E12BYbz-8O2NPFTXzXGj-92" target="E12BYbz-8O2NPFTXzXGj-86" edge="1">
          <mxGeometry relative="1" as="geometry" />
        </mxCell>
        <mxCell id="E12BYbz-8O2NPFTXzXGj-92" value="name" style="ellipse;whiteSpace=wrap;html=1;align=center;" parent="1" vertex="1">
          <mxGeometry x="-630" y="-1460" width="100" height="40" as="geometry" />
        </mxCell>
        <mxCell id="E12BYbz-8O2NPFTXzXGj-95" style="edgeStyle=orthogonalEdgeStyle;rounded=0;orthogonalLoop=1;jettySize=auto;html=1;" parent="1" source="E12BYbz-8O2NPFTXzXGj-93" target="E12BYbz-8O2NPFTXzXGj-86" edge="1">
          <mxGeometry relative="1" as="geometry" />
        </mxCell>
        <mxCell id="E12BYbz-8O2NPFTXzXGj-93" value="id_species" style="ellipse;whiteSpace=wrap;html=1;align=center;fontStyle=4;" parent="1" vertex="1">
          <mxGeometry x="-618" y="-1340" width="100" height="40" as="geometry" />
        </mxCell>
        <mxCell id="E12BYbz-8O2NPFTXzXGj-96" value="spesies :&lt;div&gt;- kucing anggora&lt;/div&gt;&lt;div&gt;- kucing persia&lt;/div&gt;&lt;div&gt;- kocheng anggora&lt;/div&gt;&lt;div&gt;- kocheng oren&lt;/div&gt;&lt;div&gt;&lt;br&gt;&lt;/div&gt;&lt;div&gt;id spesies - nama&lt;/div&gt;&lt;div&gt;1 : kucing&lt;/div&gt;&lt;div&gt;2 : kucing&lt;/div&gt;&lt;div&gt;&lt;br&gt;&lt;/div&gt;&lt;div&gt;breeds :&amp;nbsp;&lt;/div&gt;&lt;div&gt;persia&lt;/div&gt;&lt;div&gt;anggora&lt;/div&gt;&lt;div&gt;&lt;br&gt;&lt;/div&gt;&lt;div&gt;Yorkshire&lt;/div&gt;" style="shape=note;size=20;whiteSpace=wrap;html=1;" parent="1" vertex="1">
          <mxGeometry x="-860" y="-1900" width="430" height="240" as="geometry" />
        </mxCell>
        <mxCell id="E12BYbz-8O2NPFTXzXGj-97" value="breeds" style="whiteSpace=wrap;html=1;align=center;" parent="1" vertex="1">
          <mxGeometry x="-1030" y="-1480" width="100" height="40" as="geometry" />
        </mxCell>
        <mxCell id="E12BYbz-8O2NPFTXzXGj-98" style="edgeStyle=orthogonalEdgeStyle;rounded=0;orthogonalLoop=1;jettySize=auto;html=1;" parent="1" source="E12BYbz-8O2NPFTXzXGj-99" target="E12BYbz-8O2NPFTXzXGj-97" edge="1">
          <mxGeometry relative="1" as="geometry" />
        </mxCell>
        <mxCell id="E12BYbz-8O2NPFTXzXGj-99" value="name" style="ellipse;whiteSpace=wrap;html=1;align=center;" parent="1" vertex="1">
          <mxGeometry x="-1030" y="-1590" width="100" height="40" as="geometry" />
        </mxCell>
        <mxCell id="E12BYbz-8O2NPFTXzXGj-100" style="edgeStyle=orthogonalEdgeStyle;rounded=0;orthogonalLoop=1;jettySize=auto;html=1;" parent="1" source="E12BYbz-8O2NPFTXzXGj-101" target="E12BYbz-8O2NPFTXzXGj-97" edge="1">
          <mxGeometry relative="1" as="geometry" />
        </mxCell>
        <mxCell id="E12BYbz-8O2NPFTXzXGj-101" value="id_breed" style="ellipse;whiteSpace=wrap;html=1;align=center;fontStyle=4;" parent="1" vertex="1">
          <mxGeometry x="-910" y="-1530" width="100" height="40" as="geometry" />
        </mxCell>
        <mxCell id="E12BYbz-8O2NPFTXzXGj-103" style="edgeStyle=orthogonalEdgeStyle;rounded=0;orthogonalLoop=1;jettySize=auto;html=1;entryX=1;entryY=0.5;entryDx=0;entryDy=0;" parent="1" target="E12BYbz-8O2NPFTXzXGj-97" edge="1">
          <mxGeometry relative="1" as="geometry">
            <mxPoint x="-849.9999999999995" y="-1380.0000000000002" as="sourcePoint" />
            <mxPoint x="-940" y="-1450" as="targetPoint" />
          </mxGeometry>
        </mxCell>
        <mxCell id="E12BYbz-8O2NPFTXzXGj-105" value="N" style="edgeLabel;html=1;align=center;verticalAlign=middle;resizable=0;points=[];" parent="E12BYbz-8O2NPFTXzXGj-103" vertex="1" connectable="0">
          <mxGeometry x="-0.6114" y="-1" relative="1" as="geometry">
            <mxPoint y="9" as="offset" />
          </mxGeometry>
        </mxCell>
        <mxCell id="E12BYbz-8O2NPFTXzXGj-118" value="N" style="edgeLabel;html=1;align=center;verticalAlign=middle;resizable=0;points=[];" parent="E12BYbz-8O2NPFTXzXGj-103" vertex="1" connectable="0">
          <mxGeometry x="0.1822" y="-1" relative="1" as="geometry">
            <mxPoint as="offset" />
          </mxGeometry>
        </mxCell>
        <mxCell id="E12BYbz-8O2NPFTXzXGj-111" style="edgeStyle=orthogonalEdgeStyle;rounded=0;orthogonalLoop=1;jettySize=auto;html=1;" parent="1" source="E12BYbz-8O2NPFTXzXGj-102" target="E12BYbz-8O2NPFTXzXGj-86" edge="1">
          <mxGeometry relative="1" as="geometry">
            <Array as="points">
              <mxPoint x="-800" y="-1450" />
              <mxPoint x="-710" y="-1450" />
            </Array>
          </mxGeometry>
        </mxCell>
        <mxCell id="E12BYbz-8O2NPFTXzXGj-112" value="1" style="edgeLabel;html=1;align=center;verticalAlign=middle;resizable=0;points=[];" parent="E12BYbz-8O2NPFTXzXGj-111" vertex="1" connectable="0">
          <mxGeometry x="0.4321" y="-4" relative="1" as="geometry">
            <mxPoint x="-12" y="26" as="offset" />
          </mxGeometry>
        </mxCell>
        <mxCell id="E12BYbz-8O2NPFTXzXGj-102" value="have" style="shape=rhombus;perimeter=rhombusPerimeter;whiteSpace=wrap;html=1;align=center;" parent="1" vertex="1">
          <mxGeometry x="-890" y="-1400" width="120" height="60" as="geometry" />
        </mxCell>
        <mxCell id="E12BYbz-8O2NPFTXzXGj-108" style="edgeStyle=orthogonalEdgeStyle;rounded=0;orthogonalLoop=1;jettySize=auto;html=1;" parent="1" source="E12BYbz-8O2NPFTXzXGj-107" target="E12BYbz-8O2NPFTXzXGj-37" edge="1">
          <mxGeometry relative="1" as="geometry">
            <Array as="points">
              <mxPoint x="-1300" y="-1050" />
              <mxPoint x="-1300" y="-1130" />
            </Array>
          </mxGeometry>
        </mxCell>
        <mxCell id="E12BYbz-8O2NPFTXzXGj-107" value="nik" style="ellipse;whiteSpace=wrap;html=1;align=center;" parent="1" vertex="1">
          <mxGeometry x="-1290" y="-1070" width="100" height="40" as="geometry" />
        </mxCell>
        <mxCell id="E12BYbz-8O2NPFTXzXGj-110" value="nik : 16 digit&lt;div&gt;id : min 1 digit&lt;/div&gt;" style="shape=note;size=20;whiteSpace=wrap;html=1;" parent="1" vertex="1">
          <mxGeometry x="-990" y="-1240" width="260" height="170" as="geometry" />
        </mxCell>
        <mxCell id="E12BYbz-8O2NPFTXzXGj-114" style="edgeStyle=orthogonalEdgeStyle;rounded=0;orthogonalLoop=1;jettySize=auto;html=1;" parent="1" source="E12BYbz-8O2NPFTXzXGj-113" target="E12BYbz-8O2NPFTXzXGj-97" edge="1">
          <mxGeometry relative="1" as="geometry" />
        </mxCell>
        <mxCell id="E12BYbz-8O2NPFTXzXGj-115" value="1" style="edgeLabel;html=1;align=center;verticalAlign=middle;resizable=0;points=[];" parent="E12BYbz-8O2NPFTXzXGj-114" vertex="1" connectable="0">
          <mxGeometry x="0.4434" y="2" relative="1" as="geometry">
            <mxPoint as="offset" />
          </mxGeometry>
        </mxCell>
        <mxCell id="E12BYbz-8O2NPFTXzXGj-116" style="edgeStyle=orthogonalEdgeStyle;rounded=0;orthogonalLoop=1;jettySize=auto;html=1;" parent="1" source="E12BYbz-8O2NPFTXzXGj-113" target="E12BYbz-8O2NPFTXzXGj-9" edge="1">
          <mxGeometry relative="1" as="geometry" />
        </mxCell>
        <mxCell id="E12BYbz-8O2NPFTXzXGj-117" value="N" style="edgeLabel;html=1;align=center;verticalAlign=middle;resizable=0;points=[];" parent="E12BYbz-8O2NPFTXzXGj-116" vertex="1" connectable="0">
          <mxGeometry x="0.0143" y="3" relative="1" as="geometry">
            <mxPoint y="7" as="offset" />
          </mxGeometry>
        </mxCell>
        <mxCell id="E12BYbz-8O2NPFTXzXGj-113" value="have" style="shape=rhombus;perimeter=rhombusPerimeter;whiteSpace=wrap;html=1;align=center;" parent="1" vertex="1">
          <mxGeometry x="-1140" y="-1410" width="120" height="60" as="geometry" />
        </mxCell>
        <mxCell id="E12BYbz-8O2NPFTXzXGj-130" style="edgeStyle=orthogonalEdgeStyle;rounded=0;orthogonalLoop=1;jettySize=auto;html=1;" parent="1" source="E12BYbz-8O2NPFTXzXGj-121" target="E12BYbz-8O2NPFTXzXGj-11" edge="1">
          <mxGeometry relative="1" as="geometry">
            <Array as="points">
              <mxPoint x="-1610" y="-1320" />
            </Array>
          </mxGeometry>
        </mxCell>
        <mxCell id="E12BYbz-8O2NPFTXzXGj-121" value="id_checkup" style="ellipse;whiteSpace=wrap;html=1;align=center;fontStyle=4;" parent="1" vertex="1">
          <mxGeometry x="-1790" y="-1340" width="100" height="40" as="geometry" />
        </mxCell>
        <mxCell id="E12BYbz-8O2NPFTXzXGj-129" style="edgeStyle=orthogonalEdgeStyle;rounded=0;orthogonalLoop=1;jettySize=auto;html=1;" parent="1" source="E12BYbz-8O2NPFTXzXGj-122" target="E12BYbz-8O2NPFTXzXGj-11" edge="1">
          <mxGeometry relative="1" as="geometry" />
        </mxCell>
        <mxCell id="E12BYbz-8O2NPFTXzXGj-122" value="tanggal" style="ellipse;whiteSpace=wrap;html=1;align=center;" parent="1" vertex="1">
          <mxGeometry x="-1790" y="-1400" width="100" height="40" as="geometry" />
        </mxCell>
        <mxCell id="E12BYbz-8O2NPFTXzXGj-128" style="edgeStyle=orthogonalEdgeStyle;rounded=0;orthogonalLoop=1;jettySize=auto;html=1;" parent="1" source="E12BYbz-8O2NPFTXzXGj-123" target="E12BYbz-8O2NPFTXzXGj-11" edge="1">
          <mxGeometry relative="1" as="geometry">
            <Array as="points">
              <mxPoint x="-1740" y="-1400" />
            </Array>
          </mxGeometry>
        </mxCell>
        <mxCell id="E12BYbz-8O2NPFTXzXGj-123" value="keluhan" style="ellipse;whiteSpace=wrap;html=1;align=center;" parent="1" vertex="1">
          <mxGeometry x="-1790" y="-1460" width="100" height="40" as="geometry" />
        </mxCell>
        <mxCell id="E12BYbz-8O2NPFTXzXGj-131" style="edgeStyle=orthogonalEdgeStyle;rounded=0;orthogonalLoop=1;jettySize=auto;html=1;" parent="1" source="E12BYbz-8O2NPFTXzXGj-124" target="E12BYbz-8O2NPFTXzXGj-11" edge="1">
          <mxGeometry relative="1" as="geometry">
            <Array as="points">
              <mxPoint x="-1640" y="-1260" />
              <mxPoint x="-1640" y="-1380" />
            </Array>
          </mxGeometry>
        </mxCell>
        <mxCell id="E12BYbz-8O2NPFTXzXGj-124" value="penanganan" style="ellipse;whiteSpace=wrap;html=1;align=center;" parent="1" vertex="1">
          <mxGeometry x="-1790" y="-1280" width="100" height="40" as="geometry" />
        </mxCell>
        <mxCell id="E12BYbz-8O2NPFTXzXGj-127" style="edgeStyle=orthogonalEdgeStyle;rounded=0;orthogonalLoop=1;jettySize=auto;html=1;" parent="1" source="E12BYbz-8O2NPFTXzXGj-125" target="E12BYbz-8O2NPFTXzXGj-11" edge="1">
          <mxGeometry relative="1" as="geometry">
            <Array as="points">
              <mxPoint x="-1650" y="-1500" />
              <mxPoint x="-1650" y="-1380" />
            </Array>
          </mxGeometry>
        </mxCell>
        <mxCell id="E12BYbz-8O2NPFTXzXGj-125" value="obat : teks" style="ellipse;whiteSpace=wrap;html=1;align=center;" parent="1" vertex="1">
          <mxGeometry x="-1790" y="-1520" width="100" height="40" as="geometry" />
        </mxCell>
        <mxCell id="E12BYbz-8O2NPFTXzXGj-132" style="edgeStyle=orthogonalEdgeStyle;rounded=0;orthogonalLoop=1;jettySize=auto;html=1;" parent="1" source="E12BYbz-8O2NPFTXzXGj-126" target="E12BYbz-8O2NPFTXzXGj-11" edge="1">
          <mxGeometry relative="1" as="geometry">
            <Array as="points">
              <mxPoint x="-1620" y="-1470" />
              <mxPoint x="-1620" y="-1380" />
            </Array>
          </mxGeometry>
        </mxCell>
        <mxCell id="E12BYbz-8O2NPFTXzXGj-126" value="status" style="ellipse;whiteSpace=wrap;html=1;align=center;" parent="1" vertex="1">
          <mxGeometry x="-1900" y="-1490" width="100" height="40" as="geometry" />
        </mxCell>
        <mxCell id="E12BYbz-8O2NPFTXzXGj-141" style="edgeStyle=orthogonalEdgeStyle;rounded=0;orthogonalLoop=1;jettySize=auto;html=1;entryX=0.25;entryY=0;entryDx=0;entryDy=0;" parent="1" source="E12BYbz-8O2NPFTXzXGj-136" target="E12BYbz-8O2NPFTXzXGj-15" edge="1">
          <mxGeometry relative="1" as="geometry" />
        </mxCell>
        <mxCell id="E12BYbz-8O2NPFTXzXGj-136" value="id_payment" style="ellipse;whiteSpace=wrap;html=1;align=center;fontStyle=4;" parent="1" vertex="1">
          <mxGeometry x="-1770" y="-1630" width="100" height="40" as="geometry" />
        </mxCell>
        <mxCell id="E12BYbz-8O2NPFTXzXGj-142" style="edgeStyle=orthogonalEdgeStyle;rounded=0;orthogonalLoop=1;jettySize=auto;html=1;" parent="1" source="E12BYbz-8O2NPFTXzXGj-137" target="E12BYbz-8O2NPFTXzXGj-15" edge="1">
          <mxGeometry relative="1" as="geometry" />
        </mxCell>
        <mxCell id="E12BYbz-8O2NPFTXzXGj-137" value="payment_method" style="ellipse;whiteSpace=wrap;html=1;align=center;" parent="1" vertex="1">
          <mxGeometry x="-1720" y="-1720" width="100" height="40" as="geometry" />
        </mxCell>
        <mxCell id="E12BYbz-8O2NPFTXzXGj-143" style="edgeStyle=orthogonalEdgeStyle;rounded=0;orthogonalLoop=1;jettySize=auto;html=1;" parent="1" source="E12BYbz-8O2NPFTXzXGj-138" target="E12BYbz-8O2NPFTXzXGj-15" edge="1">
          <mxGeometry relative="1" as="geometry" />
        </mxCell>
        <mxCell id="E12BYbz-8O2NPFTXzXGj-138" value="status" style="ellipse;whiteSpace=wrap;html=1;align=center;" parent="1" vertex="1">
          <mxGeometry x="-1600" y="-1760" width="100" height="40" as="geometry" />
        </mxCell>
        <mxCell id="E12BYbz-8O2NPFTXzXGj-144" style="edgeStyle=orthogonalEdgeStyle;rounded=0;orthogonalLoop=1;jettySize=auto;html=1;" parent="1" source="E12BYbz-8O2NPFTXzXGj-139" target="E12BYbz-8O2NPFTXzXGj-15" edge="1">
          <mxGeometry relative="1" as="geometry" />
        </mxCell>
        <mxCell id="E12BYbz-8O2NPFTXzXGj-139" value="price" style="ellipse;whiteSpace=wrap;html=1;align=center;" parent="1" vertex="1">
          <mxGeometry x="-1500" y="-1680" width="100" height="40" as="geometry" />
        </mxCell>
        <mxCell id="E12BYbz-8O2NPFTXzXGj-145" style="edgeStyle=orthogonalEdgeStyle;rounded=0;orthogonalLoop=1;jettySize=auto;html=1;" parent="1" source="E12BYbz-8O2NPFTXzXGj-140" target="E12BYbz-8O2NPFTXzXGj-15" edge="1">
          <mxGeometry relative="1" as="geometry" />
        </mxCell>
        <mxCell id="E12BYbz-8O2NPFTXzXGj-140" value="payment_date" style="ellipse;whiteSpace=wrap;html=1;align=center;" parent="1" vertex="1">
          <mxGeometry x="-1520" y="-1790" width="100" height="40" as="geometry" />
        </mxCell>
        <mxCell id="E12BYbz-8O2NPFTXzXGj-146" value="payment method&lt;div&gt;- cash&lt;/div&gt;&lt;div&gt;- qris&lt;/div&gt;&lt;div&gt;- transfer bank&lt;/div&gt;&lt;div&gt;- virtual account&lt;/div&gt;&lt;div&gt;- ovo&lt;/div&gt;&lt;div&gt;- shopee&lt;/div&gt;&lt;div&gt;- gopay&lt;/div&gt;" style="shape=note;size=20;whiteSpace=wrap;html=1;" parent="1" vertex="1">
          <mxGeometry x="-2040" y="-1780" width="170" height="150" as="geometry" />
        </mxCell>
        <mxCell id="E12BYbz-8O2NPFTXzXGj-148" style="edgeStyle=orthogonalEdgeStyle;rounded=0;orthogonalLoop=1;jettySize=auto;html=1;" parent="1" source="E12BYbz-8O2NPFTXzXGj-147" target="E12BYbz-8O2NPFTXzXGj-15" edge="1">
          <mxGeometry relative="1" as="geometry" />
        </mxCell>
        <mxCell id="E12BYbz-8O2NPFTXzXGj-147" value="barcode" style="ellipse;whiteSpace=wrap;html=1;align=center;" parent="1" vertex="1">
          <mxGeometry x="-1850" y="-1690" width="100" height="40" as="geometry" />
        </mxCell>
        <mxCell id="E12BYbz-8O2NPFTXzXGj-150" style="edgeStyle=orthogonalEdgeStyle;rounded=0;orthogonalLoop=1;jettySize=auto;html=1;" parent="1" source="E12BYbz-8O2NPFTXzXGj-149" target="E12BYbz-8O2NPFTXzXGj-15" edge="1">
          <mxGeometry relative="1" as="geometry" />
        </mxCell>
        <mxCell id="E12BYbz-8O2NPFTXzXGj-149" value="norek" style="ellipse;whiteSpace=wrap;html=1;align=center;" parent="1" vertex="1">
          <mxGeometry x="-1850" y="-1590" width="100" height="40" as="geometry" />
        </mxCell>
        <mxCell id="E12BYbz-8O2NPFTXzXGj-151" value="bank" style="whiteSpace=wrap;html=1;align=center;" parent="1" vertex="1">
          <mxGeometry x="-1240" y="-1660" width="100" height="40" as="geometry" />
        </mxCell>
        <mxCell id="E12BYbz-8O2NPFTXzXGj-154" style="edgeStyle=orthogonalEdgeStyle;rounded=0;orthogonalLoop=1;jettySize=auto;html=1;" parent="1" source="E12BYbz-8O2NPFTXzXGj-152" target="E12BYbz-8O2NPFTXzXGj-151" edge="1">
          <mxGeometry relative="1" as="geometry" />
        </mxCell>
        <mxCell id="E12BYbz-8O2NPFTXzXGj-155" value="1" style="edgeLabel;html=1;align=center;verticalAlign=middle;resizable=0;points=[];" parent="E12BYbz-8O2NPFTXzXGj-154" vertex="1" connectable="0">
          <mxGeometry x="0.4245" y="-2" relative="1" as="geometry">
            <mxPoint y="-22" as="offset" />
          </mxGeometry>
        </mxCell>
        <mxCell id="E12BYbz-8O2NPFTXzXGj-152" value="have" style="shape=rhombus;perimeter=rhombusPerimeter;whiteSpace=wrap;html=1;align=center;" parent="1" vertex="1">
          <mxGeometry x="-1450" y="-1620" width="120" height="60" as="geometry" />
        </mxCell>
        <mxCell id="E12BYbz-8O2NPFTXzXGj-159" style="edgeStyle=orthogonalEdgeStyle;rounded=0;orthogonalLoop=1;jettySize=auto;html=1;" parent="1" source="E12BYbz-8O2NPFTXzXGj-157" target="E12BYbz-8O2NPFTXzXGj-151" edge="1">
          <mxGeometry relative="1" as="geometry" />
        </mxCell>
        <mxCell id="E12BYbz-8O2NPFTXzXGj-157" value="id_bank" style="ellipse;whiteSpace=wrap;html=1;align=center;fontStyle=4;" parent="1" vertex="1">
          <mxGeometry x="-1250" y="-1740" width="100" height="40" as="geometry" />
        </mxCell>
        <mxCell id="E12BYbz-8O2NPFTXzXGj-160" style="edgeStyle=orthogonalEdgeStyle;rounded=0;orthogonalLoop=1;jettySize=auto;html=1;" parent="1" source="E12BYbz-8O2NPFTXzXGj-158" target="E12BYbz-8O2NPFTXzXGj-151" edge="1">
          <mxGeometry relative="1" as="geometry" />
        </mxCell>
        <mxCell id="E12BYbz-8O2NPFTXzXGj-158" value="nama" style="ellipse;whiteSpace=wrap;html=1;align=center;" parent="1" vertex="1">
          <mxGeometry x="-1110" y="-1670" width="100" height="40" as="geometry" />
        </mxCell>
        <mxCell id="E12BYbz-8O2NPFTXzXGj-162" style="edgeStyle=orthogonalEdgeStyle;rounded=0;orthogonalLoop=1;jettySize=auto;html=1;" parent="1" source="E12BYbz-8O2NPFTXzXGj-161" target="E12BYbz-8O2NPFTXzXGj-151" edge="1">
          <mxGeometry relative="1" as="geometry" />
        </mxCell>
        <mxCell id="E12BYbz-8O2NPFTXzXGj-161" value="logo" style="ellipse;whiteSpace=wrap;html=1;align=center;" parent="1" vertex="1">
          <mxGeometry x="-1160" y="-1590" width="100" height="40" as="geometry" />
        </mxCell>
        <mxCell id="E12BYbz-8O2NPFTXzXGj-164" style="edgeStyle=orthogonalEdgeStyle;rounded=0;orthogonalLoop=1;jettySize=auto;html=1;" parent="1" source="E12BYbz-8O2NPFTXzXGj-163" target="E12BYbz-8O2NPFTXzXGj-15" edge="1">
          <mxGeometry relative="1" as="geometry">
            <Array as="points">
              <mxPoint x="-1560" y="-1700" />
            </Array>
          </mxGeometry>
        </mxCell>
        <mxCell id="E12BYbz-8O2NPFTXzXGj-163" value="no_hp" style="ellipse;whiteSpace=wrap;html=1;align=center;" parent="1" vertex="1">
          <mxGeometry x="-1420" y="-1725" width="100" height="40" as="geometry" />
        </mxCell>
        <mxCell id="E12BYbz-8O2NPFTXzXGj-166" style="edgeStyle=orthogonalEdgeStyle;rounded=0;orthogonalLoop=1;jettySize=auto;html=1;" parent="1" source="E12BYbz-8O2NPFTXzXGj-165" target="E12BYbz-8O2NPFTXzXGj-37" edge="1">
          <mxGeometry relative="1" as="geometry">
            <Array as="points">
              <mxPoint x="-1540" y="-1140" />
            </Array>
          </mxGeometry>
        </mxCell>
        <mxCell id="E12BYbz-8O2NPFTXzXGj-165" value="id_role" style="ellipse;whiteSpace=wrap;html=1;align=center;fontStyle=4;" parent="1" vertex="1">
          <mxGeometry x="-1590" y="-1080" width="100" height="40" as="geometry" />
        </mxCell>
        <mxCell id="E12BYbz-8O2NPFTXzXGj-168" style="edgeStyle=orthogonalEdgeStyle;rounded=0;orthogonalLoop=1;jettySize=auto;html=1;" parent="1" source="E12BYbz-8O2NPFTXzXGj-167" target="E12BYbz-8O2NPFTXzXGj-9" edge="1">
          <mxGeometry relative="1" as="geometry" />
        </mxCell>
        <mxCell id="E12BYbz-8O2NPFTXzXGj-167" value="id_user" style="ellipse;whiteSpace=wrap;html=1;align=center;fontStyle=4;" parent="1" vertex="1">
          <mxGeometry x="-1360" y="-1320" width="100" height="40" as="geometry" />
        </mxCell>
        <mxCell id="E12BYbz-8O2NPFTXzXGj-170" style="edgeStyle=orthogonalEdgeStyle;rounded=0;orthogonalLoop=1;jettySize=auto;html=1;" parent="1" source="E12BYbz-8O2NPFTXzXGj-169" target="E12BYbz-8O2NPFTXzXGj-11" edge="1">
          <mxGeometry relative="1" as="geometry">
            <Array as="points">
              <mxPoint x="-1590" y="-1290" />
            </Array>
          </mxGeometry>
        </mxCell>
        <mxCell id="E12BYbz-8O2NPFTXzXGj-169" value="id_user" style="ellipse;whiteSpace=wrap;html=1;align=center;fontStyle=4;" parent="1" vertex="1">
          <mxGeometry x="-1910" y="-1310" width="100" height="40" as="geometry" />
        </mxCell>
        <mxCell id="E12BYbz-8O2NPFTXzXGj-172" style="edgeStyle=orthogonalEdgeStyle;rounded=0;orthogonalLoop=1;jettySize=auto;html=1;" parent="1" source="E12BYbz-8O2NPFTXzXGj-171" target="E12BYbz-8O2NPFTXzXGj-11" edge="1">
          <mxGeometry relative="1" as="geometry">
            <Array as="points">
              <mxPoint x="-1670" y="-1350" />
              <mxPoint x="-1670" y="-1380" />
            </Array>
          </mxGeometry>
        </mxCell>
        <mxCell id="E12BYbz-8O2NPFTXzXGj-171" value="id_payment" style="ellipse;whiteSpace=wrap;html=1;align=center;fontStyle=4;" parent="1" vertex="1">
          <mxGeometry x="-1900" y="-1370" width="100" height="40" as="geometry" />
        </mxCell>
        <mxCell id="E12BYbz-8O2NPFTXzXGj-174" style="edgeStyle=orthogonalEdgeStyle;rounded=0;orthogonalLoop=1;jettySize=auto;html=1;" parent="1" source="E12BYbz-8O2NPFTXzXGj-173" target="E12BYbz-8O2NPFTXzXGj-15" edge="1">
          <mxGeometry relative="1" as="geometry">
            <Array as="points">
              <mxPoint x="-1590" y="-1560" />
              <mxPoint x="-1590" y="-1550" />
              <mxPoint x="-1560" y="-1550" />
            </Array>
          </mxGeometry>
        </mxCell>
        <mxCell id="E12BYbz-8O2NPFTXzXGj-173" value="id_bank" style="ellipse;whiteSpace=wrap;html=1;align=center;fontStyle=4;" parent="1" vertex="1">
          <mxGeometry x="-1710" y="-1560" width="100" height="40" as="geometry" />
        </mxCell>
        <mxCell id="E12BYbz-8O2NPFTXzXGj-176" style="edgeStyle=orthogonalEdgeStyle;rounded=0;orthogonalLoop=1;jettySize=auto;html=1;" parent="1" source="E12BYbz-8O2NPFTXzXGj-175" target="E12BYbz-8O2NPFTXzXGj-11" edge="1">
          <mxGeometry relative="1" as="geometry">
            <Array as="points">
              <mxPoint x="-1680" y="-1410" />
              <mxPoint x="-1680" y="-1380" />
            </Array>
          </mxGeometry>
        </mxCell>
        <mxCell id="E12BYbz-8O2NPFTXzXGj-175" value="id_animal" style="ellipse;whiteSpace=wrap;html=1;align=center;fontStyle=4;" parent="1" vertex="1">
          <mxGeometry x="-1910" y="-1430" width="100" height="40" as="geometry" />
        </mxCell>
        <mxCell id="E12BYbz-8O2NPFTXzXGj-178" style="edgeStyle=orthogonalEdgeStyle;rounded=0;orthogonalLoop=1;jettySize=auto;html=1;" parent="1" source="E12BYbz-8O2NPFTXzXGj-177" target="E12BYbz-8O2NPFTXzXGj-9" edge="1">
          <mxGeometry relative="1" as="geometry" />
        </mxCell>
        <mxCell id="E12BYbz-8O2NPFTXzXGj-177" value="id_breed" style="ellipse;whiteSpace=wrap;html=1;align=center;" parent="1" vertex="1">
          <mxGeometry x="-1260" y="-1530" width="100" height="40" as="geometry" />
        </mxCell>
        <mxCell id="E12BYbz-8O2NPFTXzXGj-180" style="edgeStyle=orthogonalEdgeStyle;rounded=0;orthogonalLoop=1;jettySize=auto;html=1;" parent="1" source="E12BYbz-8O2NPFTXzXGj-179" target="E12BYbz-8O2NPFTXzXGj-97" edge="1">
          <mxGeometry relative="1" as="geometry">
            <Array as="points">
              <mxPoint x="-860" y="-1540" />
              <mxPoint x="-980" y="-1540" />
            </Array>
          </mxGeometry>
        </mxCell>
        <mxCell id="E12BYbz-8O2NPFTXzXGj-179" value="id_species" style="ellipse;whiteSpace=wrap;html=1;align=center;fontStyle=4;" parent="1" vertex="1">
          <mxGeometry x="-910" y="-1600" width="100" height="40" as="geometry" />
        </mxCell>
        <mxCell id="E12BYbz-8O2NPFTXzXGj-181" value="checkup&lt;div&gt;id_user : id user sebagai dokter&lt;/div&gt;&lt;div&gt;id_animal : id hewan yang diperiksa&lt;/div&gt;&lt;div&gt;&lt;br&gt;&lt;/div&gt;&lt;div&gt;hewan :&lt;/div&gt;&lt;div&gt;id_user : id. user sebagai pemilik si hewan&lt;/div&gt;&lt;div&gt;&lt;br&gt;&lt;/div&gt;&lt;div&gt;user&lt;/div&gt;" style="shape=note;size=20;whiteSpace=wrap;html=1;" parent="1" vertex="1">
          <mxGeometry x="-2240" y="-1410" width="320" height="290" as="geometry" />
        </mxCell>
        <mxCell id="E12BYbz-8O2NPFTXzXGj-184" value="checkup :&lt;div&gt;&lt;br&gt;&lt;div&gt;payment :&lt;/div&gt;&lt;/div&gt;&lt;div&gt;&lt;br&gt;&lt;/div&gt;" style="shape=note;size=20;whiteSpace=wrap;html=1;" parent="1" vertex="1">
          <mxGeometry x="-2360" y="-1720" width="320" height="290" as="geometry" />
        </mxCell>
        <mxCell id="E12BYbz-8O2NPFTXzXGj-187" value="pembelian" style="whiteSpace=wrap;html=1;align=center;" parent="1" vertex="1">
          <mxGeometry x="-2010" y="-1590" width="100" height="40" as="geometry" />
        </mxCell>
        <mxCell id="E12BYbz-8O2NPFTXzXGj-189" value="detail checkup / invoice" style="whiteSpace=wrap;html=1;align=center;" parent="1" vertex="1">
          <mxGeometry x="-3000" y="-1630" width="420" height="360" as="geometry" />
        </mxCell>
        <mxCell id="E12BYbz-8O2NPFTXzXGj-190" value="status pembayaran" style="whiteSpace=wrap;html=1;align=center;" parent="1" vertex="1">
          <mxGeometry x="-2960" y="-1350" width="100" height="40" as="geometry" />
        </mxCell>
        <mxCell id="E12BYbz-8O2NPFTXzXGj-191" value="detail pembelian" style="whiteSpace=wrap;html=1;align=center;" parent="1" vertex="1">
          <mxGeometry x="-3440" y="-1630" width="420" height="360" as="geometry" />
        </mxCell>
        <mxCell id="E12BYbz-8O2NPFTXzXGj-192" value="status pembayaran" style="whiteSpace=wrap;html=1;align=center;" parent="1" vertex="1">
          <mxGeometry x="-3400" y="-1350" width="100" height="40" as="geometry" />
        </mxCell>
        <mxCell id="GG20nStti9RRhCUSQXcC-1" value="users" style="shape=table;startSize=30;container=1;collapsible=1;childLayout=tableLayout;fixedRows=1;rowLines=0;fontStyle=1;align=center;resizeLast=1;html=1;" vertex="1" parent="1">
          <mxGeometry x="-2580" y="-1910" width="180" height="150" as="geometry" />
        </mxCell>
        <mxCell id="GG20nStti9RRhCUSQXcC-2" value="" style="shape=tableRow;horizontal=0;startSize=0;swimlaneHead=0;swimlaneBody=0;fillColor=none;collapsible=0;dropTarget=0;points=[[0,0.5],[1,0.5]];portConstraint=eastwest;top=0;left=0;right=0;bottom=1;" vertex="1" parent="GG20nStti9RRhCUSQXcC-1">
          <mxGeometry y="30" width="180" height="30" as="geometry" />
        </mxCell>
        <mxCell id="GG20nStti9RRhCUSQXcC-3" value="PK" style="shape=partialRectangle;connectable=0;fillColor=none;top=0;left=0;bottom=0;right=0;fontStyle=1;overflow=hidden;whiteSpace=wrap;html=1;" vertex="1" parent="GG20nStti9RRhCUSQXcC-2">
          <mxGeometry width="30" height="30" as="geometry">
            <mxRectangle width="30" height="30" as="alternateBounds" />
          </mxGeometry>
        </mxCell>
        <mxCell id="GG20nStti9RRhCUSQXcC-4" value="id_user" style="shape=partialRectangle;connectable=0;fillColor=none;top=0;left=0;bottom=0;right=0;align=left;spacingLeft=6;fontStyle=5;overflow=hidden;whiteSpace=wrap;html=1;" vertex="1" parent="GG20nStti9RRhCUSQXcC-2">
          <mxGeometry x="30" width="150" height="30" as="geometry">
            <mxRectangle width="150" height="30" as="alternateBounds" />
          </mxGeometry>
        </mxCell>
        <mxCell id="GG20nStti9RRhCUSQXcC-5" value="" style="shape=tableRow;horizontal=0;startSize=0;swimlaneHead=0;swimlaneBody=0;fillColor=none;collapsible=0;dropTarget=0;points=[[0,0.5],[1,0.5]];portConstraint=eastwest;top=0;left=0;right=0;bottom=0;" vertex="1" parent="GG20nStti9RRhCUSQXcC-1">
          <mxGeometry y="60" width="180" height="30" as="geometry" />
        </mxCell>
        <mxCell id="GG20nStti9RRhCUSQXcC-6" value="" style="shape=partialRectangle;connectable=0;fillColor=none;top=0;left=0;bottom=0;right=0;editable=1;overflow=hidden;whiteSpace=wrap;html=1;" vertex="1" parent="GG20nStti9RRhCUSQXcC-5">
          <mxGeometry width="30" height="30" as="geometry">
            <mxRectangle width="30" height="30" as="alternateBounds" />
          </mxGeometry>
        </mxCell>
        <mxCell id="GG20nStti9RRhCUSQXcC-7" value="nama" style="shape=partialRectangle;connectable=0;fillColor=none;top=0;left=0;bottom=0;right=0;align=left;spacingLeft=6;overflow=hidden;whiteSpace=wrap;html=1;" vertex="1" parent="GG20nStti9RRhCUSQXcC-5">
          <mxGeometry x="30" width="150" height="30" as="geometry">
            <mxRectangle width="150" height="30" as="alternateBounds" />
          </mxGeometry>
        </mxCell>
        <mxCell id="GG20nStti9RRhCUSQXcC-8" value="" style="shape=tableRow;horizontal=0;startSize=0;swimlaneHead=0;swimlaneBody=0;fillColor=none;collapsible=0;dropTarget=0;points=[[0,0.5],[1,0.5]];portConstraint=eastwest;top=0;left=0;right=0;bottom=0;" vertex="1" parent="GG20nStti9RRhCUSQXcC-1">
          <mxGeometry y="90" width="180" height="30" as="geometry" />
        </mxCell>
        <mxCell id="GG20nStti9RRhCUSQXcC-9" value="" style="shape=partialRectangle;connectable=0;fillColor=none;top=0;left=0;bottom=0;right=0;editable=1;overflow=hidden;whiteSpace=wrap;html=1;" vertex="1" parent="GG20nStti9RRhCUSQXcC-8">
          <mxGeometry width="30" height="30" as="geometry">
            <mxRectangle width="30" height="30" as="alternateBounds" />
          </mxGeometry>
        </mxCell>
        <mxCell id="GG20nStti9RRhCUSQXcC-10" value="email" style="shape=partialRectangle;connectable=0;fillColor=none;top=0;left=0;bottom=0;right=0;align=left;spacingLeft=6;overflow=hidden;whiteSpace=wrap;html=1;" vertex="1" parent="GG20nStti9RRhCUSQXcC-8">
          <mxGeometry x="30" width="150" height="30" as="geometry">
            <mxRectangle width="150" height="30" as="alternateBounds" />
          </mxGeometry>
        </mxCell>
        <mxCell id="GG20nStti9RRhCUSQXcC-11" value="" style="shape=tableRow;horizontal=0;startSize=0;swimlaneHead=0;swimlaneBody=0;fillColor=none;collapsible=0;dropTarget=0;points=[[0,0.5],[1,0.5]];portConstraint=eastwest;top=0;left=0;right=0;bottom=0;" vertex="1" parent="GG20nStti9RRhCUSQXcC-1">
          <mxGeometry y="120" width="180" height="30" as="geometry" />
        </mxCell>
        <mxCell id="GG20nStti9RRhCUSQXcC-12" value="" style="shape=partialRectangle;connectable=0;fillColor=none;top=0;left=0;bottom=0;right=0;editable=1;overflow=hidden;whiteSpace=wrap;html=1;" vertex="1" parent="GG20nStti9RRhCUSQXcC-11">
          <mxGeometry width="30" height="30" as="geometry">
            <mxRectangle width="30" height="30" as="alternateBounds" />
          </mxGeometry>
        </mxCell>
        <mxCell id="GG20nStti9RRhCUSQXcC-13" value="password" style="shape=partialRectangle;connectable=0;fillColor=none;top=0;left=0;bottom=0;right=0;align=left;spacingLeft=6;overflow=hidden;whiteSpace=wrap;html=1;" vertex="1" parent="GG20nStti9RRhCUSQXcC-11">
          <mxGeometry x="30" width="150" height="30" as="geometry">
            <mxRectangle width="150" height="30" as="alternateBounds" />
          </mxGeometry>
        </mxCell>
        <mxCell id="GG20nStti9RRhCUSQXcC-32" style="edgeStyle=orthogonalEdgeStyle;rounded=0;orthogonalLoop=1;jettySize=auto;html=1;entryX=0.5;entryY=0;entryDx=0;entryDy=0;" edge="1" parent="1" source="GG20nStti9RRhCUSQXcC-15" target="GG20nStti9RRhCUSQXcC-1">
          <mxGeometry relative="1" as="geometry">
            <Array as="points">
              <mxPoint x="-2490" y="-1990" />
            </Array>
          </mxGeometry>
        </mxCell>
        <mxCell id="GG20nStti9RRhCUSQXcC-33" value="N" style="edgeLabel;html=1;align=center;verticalAlign=middle;resizable=0;points=[];" vertex="1" connectable="0" parent="GG20nStti9RRhCUSQXcC-32">
          <mxGeometry x="0.8316" y="4" relative="1" as="geometry">
            <mxPoint x="6" y="2" as="offset" />
          </mxGeometry>
        </mxCell>
        <mxCell id="GG20nStti9RRhCUSQXcC-34" value="1" style="edgeLabel;html=1;align=center;verticalAlign=middle;resizable=0;points=[];" vertex="1" connectable="0" parent="GG20nStti9RRhCUSQXcC-32">
          <mxGeometry x="-0.8474" y="1" relative="1" as="geometry">
            <mxPoint y="9" as="offset" />
          </mxGeometry>
        </mxCell>
        <mxCell id="GG20nStti9RRhCUSQXcC-15" value="roles" style="shape=table;startSize=30;container=1;collapsible=1;childLayout=tableLayout;fixedRows=1;rowLines=0;fontStyle=1;align=center;resizeLast=1;html=1;" vertex="1" parent="1">
          <mxGeometry x="-2190" y="-2010" width="180" height="90" as="geometry" />
        </mxCell>
        <mxCell id="GG20nStti9RRhCUSQXcC-16" value="" style="shape=tableRow;horizontal=0;startSize=0;swimlaneHead=0;swimlaneBody=0;fillColor=none;collapsible=0;dropTarget=0;points=[[0,0.5],[1,0.5]];portConstraint=eastwest;top=0;left=0;right=0;bottom=1;" vertex="1" parent="GG20nStti9RRhCUSQXcC-15">
          <mxGeometry y="30" width="180" height="30" as="geometry" />
        </mxCell>
        <mxCell id="GG20nStti9RRhCUSQXcC-17" value="PK" style="shape=partialRectangle;connectable=0;fillColor=none;top=0;left=0;bottom=0;right=0;fontStyle=1;overflow=hidden;whiteSpace=wrap;html=1;" vertex="1" parent="GG20nStti9RRhCUSQXcC-16">
          <mxGeometry width="30" height="30" as="geometry">
            <mxRectangle width="30" height="30" as="alternateBounds" />
          </mxGeometry>
        </mxCell>
        <mxCell id="GG20nStti9RRhCUSQXcC-18" value="id_role" style="shape=partialRectangle;connectable=0;fillColor=none;top=0;left=0;bottom=0;right=0;align=left;spacingLeft=6;fontStyle=5;overflow=hidden;whiteSpace=wrap;html=1;" vertex="1" parent="GG20nStti9RRhCUSQXcC-16">
          <mxGeometry x="30" width="150" height="30" as="geometry">
            <mxRectangle width="150" height="30" as="alternateBounds" />
          </mxGeometry>
        </mxCell>
        <mxCell id="GG20nStti9RRhCUSQXcC-19" value="" style="shape=tableRow;horizontal=0;startSize=0;swimlaneHead=0;swimlaneBody=0;fillColor=none;collapsible=0;dropTarget=0;points=[[0,0.5],[1,0.5]];portConstraint=eastwest;top=0;left=0;right=0;bottom=0;" vertex="1" parent="GG20nStti9RRhCUSQXcC-15">
          <mxGeometry y="60" width="180" height="30" as="geometry" />
        </mxCell>
        <mxCell id="GG20nStti9RRhCUSQXcC-20" value="" style="shape=partialRectangle;connectable=0;fillColor=none;top=0;left=0;bottom=0;right=0;editable=1;overflow=hidden;whiteSpace=wrap;html=1;" vertex="1" parent="GG20nStti9RRhCUSQXcC-19">
          <mxGeometry width="30" height="30" as="geometry">
            <mxRectangle width="30" height="30" as="alternateBounds" />
          </mxGeometry>
        </mxCell>
        <mxCell id="GG20nStti9RRhCUSQXcC-21" value="nama" style="shape=partialRectangle;connectable=0;fillColor=none;top=0;left=0;bottom=0;right=0;align=left;spacingLeft=6;overflow=hidden;whiteSpace=wrap;html=1;" vertex="1" parent="GG20nStti9RRhCUSQXcC-19">
          <mxGeometry x="30" width="150" height="30" as="geometry">
            <mxRectangle width="150" height="30" as="alternateBounds" />
          </mxGeometry>
        </mxCell>
        <mxCell id="GG20nStti9RRhCUSQXcC-35" value="alamat" style="whiteSpace=wrap;html=1;align=center;" vertex="1" parent="1">
          <mxGeometry x="-1810" y="-950" width="100" height="40" as="geometry" />
        </mxCell>
        <mxCell id="GG20nStti9RRhCUSQXcC-38" value="2 entitas :&lt;div&gt;- A : pelanggan&lt;/div&gt;&lt;div&gt;- B : pembelian&lt;/div&gt;&lt;div&gt;&lt;br&gt;&lt;/div&gt;&lt;div&gt;1 relasi :&lt;/div&gt;&lt;div&gt;- C : melakukan&lt;/div&gt;&lt;div&gt;&lt;br&gt;&lt;/div&gt;&lt;div&gt;kardinalitas di B : 1 A C B ?&lt;/div&gt;&lt;div&gt;karidnalitas di A : 1 B C A ?&lt;/div&gt;&lt;div&gt;&lt;br&gt;&lt;/div&gt;&lt;div&gt;kardinalitas di B :&lt;/div&gt;&lt;div&gt;1 pelanggan dapat melakukan berapa pembelian ?&lt;/div&gt;&lt;div&gt;&lt;br&gt;&lt;/div&gt;&lt;div&gt;&lt;div&gt;kardinalitas di A :&lt;/div&gt;&lt;div&gt;1 pembelian dapat dilakukan berapa pelanggan ?&lt;/div&gt;&lt;/div&gt;" style="shape=note;size=20;whiteSpace=wrap;html=1;" vertex="1" parent="1">
          <mxGeometry x="-390" y="-420" width="350" height="290" as="geometry" />
        </mxCell>
        <mxCell id="GG20nStti9RRhCUSQXcC-42" style="edgeStyle=orthogonalEdgeStyle;rounded=0;orthogonalLoop=1;jettySize=auto;html=1;" edge="1" parent="1" source="GG20nStti9RRhCUSQXcC-39" target="GG20nStti9RRhCUSQXcC-41">
          <mxGeometry relative="1" as="geometry" />
        </mxCell>
        <mxCell id="GG20nStti9RRhCUSQXcC-45" value="1" style="edgeLabel;html=1;align=center;verticalAlign=middle;resizable=0;points=[];" vertex="1" connectable="0" parent="GG20nStti9RRhCUSQXcC-42">
          <mxGeometry x="-0.4879" y="4" relative="1" as="geometry">
            <mxPoint x="6" y="5" as="offset" />
          </mxGeometry>
        </mxCell>
        <mxCell id="GG20nStti9RRhCUSQXcC-39" value="pelanggan" style="whiteSpace=wrap;html=1;align=center;" vertex="1" parent="1">
          <mxGeometry x="-570" y="-445" width="100" height="40" as="geometry" />
        </mxCell>
        <mxCell id="GG20nStti9RRhCUSQXcC-43" style="edgeStyle=orthogonalEdgeStyle;rounded=0;orthogonalLoop=1;jettySize=auto;html=1;" edge="1" parent="1" source="GG20nStti9RRhCUSQXcC-40" target="GG20nStti9RRhCUSQXcC-41">
          <mxGeometry relative="1" as="geometry" />
        </mxCell>
        <mxCell id="GG20nStti9RRhCUSQXcC-44" value="N" style="edgeLabel;html=1;align=center;verticalAlign=middle;resizable=0;points=[];" vertex="1" connectable="0" parent="GG20nStti9RRhCUSQXcC-43">
          <mxGeometry x="-0.2799" y="-4" relative="1" as="geometry">
            <mxPoint x="17" y="-6" as="offset" />
          </mxGeometry>
        </mxCell>
        <mxCell id="GG20nStti9RRhCUSQXcC-40" value="pembelian" style="whiteSpace=wrap;html=1;align=center;" vertex="1" parent="1">
          <mxGeometry x="-570" y="-230" width="100" height="40" as="geometry" />
        </mxCell>
        <mxCell id="GG20nStti9RRhCUSQXcC-41" value="melakukan" style="shape=rhombus;perimeter=rhombusPerimeter;whiteSpace=wrap;html=1;align=center;" vertex="1" parent="1">
          <mxGeometry x="-575" y="-350" width="120" height="60" as="geometry" />
        </mxCell>
        <mxCell id="GG20nStti9RRhCUSQXcC-60" style="edgeStyle=orthogonalEdgeStyle;rounded=0;orthogonalLoop=1;jettySize=auto;html=1;" edge="1" parent="1" source="GG20nStti9RRhCUSQXcC-46" target="GG20nStti9RRhCUSQXcC-59">
          <mxGeometry relative="1" as="geometry" />
        </mxCell>
        <mxCell id="GG20nStti9RRhCUSQXcC-62" value="1" style="edgeLabel;html=1;align=center;verticalAlign=middle;resizable=0;points=[];" vertex="1" connectable="0" parent="GG20nStti9RRhCUSQXcC-60">
          <mxGeometry x="-0.1048" y="2" relative="1" as="geometry">
            <mxPoint x="8" as="offset" />
          </mxGeometry>
        </mxCell>
        <mxCell id="GG20nStti9RRhCUSQXcC-46" value="users" style="whiteSpace=wrap;html=1;align=center;" vertex="1" parent="1">
          <mxGeometry x="-2520" y="-960" width="100" height="40" as="geometry" />
        </mxCell>
        <mxCell id="GG20nStti9RRhCUSQXcC-47" value="janjian" style="whiteSpace=wrap;html=1;align=center;" vertex="1" parent="1">
          <mxGeometry x="-2520" y="-500" width="100" height="40" as="geometry" />
        </mxCell>
        <mxCell id="GG20nStti9RRhCUSQXcC-55" style="edgeStyle=orthogonalEdgeStyle;rounded=0;orthogonalLoop=1;jettySize=auto;html=1;" edge="1" parent="1" source="GG20nStti9RRhCUSQXcC-53" target="GG20nStti9RRhCUSQXcC-54">
          <mxGeometry relative="1" as="geometry" />
        </mxCell>
        <mxCell id="GG20nStti9RRhCUSQXcC-57" value="N" style="edgeLabel;html=1;align=center;verticalAlign=middle;resizable=0;points=[];" vertex="1" connectable="0" parent="GG20nStti9RRhCUSQXcC-55">
          <mxGeometry x="-0.1762" y="2" relative="1" as="geometry">
            <mxPoint x="8" y="11" as="offset" />
          </mxGeometry>
        </mxCell>
        <mxCell id="GG20nStti9RRhCUSQXcC-53" value="invitation" style="whiteSpace=wrap;html=1;align=center;" vertex="1" parent="1">
          <mxGeometry x="-2520" y="-730" width="100" height="40" as="geometry" />
        </mxCell>
        <mxCell id="GG20nStti9RRhCUSQXcC-56" style="edgeStyle=orthogonalEdgeStyle;rounded=0;orthogonalLoop=1;jettySize=auto;html=1;" edge="1" parent="1" source="GG20nStti9RRhCUSQXcC-54" target="GG20nStti9RRhCUSQXcC-47">
          <mxGeometry relative="1" as="geometry" />
        </mxCell>
        <mxCell id="GG20nStti9RRhCUSQXcC-58" value="1" style="edgeLabel;html=1;align=center;verticalAlign=middle;resizable=0;points=[];" vertex="1" connectable="0" parent="GG20nStti9RRhCUSQXcC-56">
          <mxGeometry x="-0.08" y="1" relative="1" as="geometry">
            <mxPoint x="9" as="offset" />
          </mxGeometry>
        </mxCell>
        <mxCell id="GG20nStti9RRhCUSQXcC-54" value="memiliki" style="shape=rhombus;perimeter=rhombusPerimeter;whiteSpace=wrap;html=1;align=center;" vertex="1" parent="1">
          <mxGeometry x="-2530" y="-620" width="120" height="60" as="geometry" />
        </mxCell>
        <mxCell id="GG20nStti9RRhCUSQXcC-61" style="edgeStyle=orthogonalEdgeStyle;rounded=0;orthogonalLoop=1;jettySize=auto;html=1;" edge="1" parent="1" source="GG20nStti9RRhCUSQXcC-59" target="GG20nStti9RRhCUSQXcC-53">
          <mxGeometry relative="1" as="geometry" />
        </mxCell>
        <mxCell id="GG20nStti9RRhCUSQXcC-63" value="N" style="edgeLabel;html=1;align=center;verticalAlign=middle;resizable=0;points=[];" vertex="1" connectable="0" parent="GG20nStti9RRhCUSQXcC-61">
          <mxGeometry x="-0.0944" relative="1" as="geometry">
            <mxPoint x="10" y="3" as="offset" />
          </mxGeometry>
        </mxCell>
        <mxCell id="GG20nStti9RRhCUSQXcC-59" value="memiliki" style="shape=rhombus;perimeter=rhombusPerimeter;whiteSpace=wrap;html=1;align=center;" vertex="1" parent="1">
          <mxGeometry x="-2530" y="-850" width="120" height="60" as="geometry" />
        </mxCell>
        <mxCell id="GG20nStti9RRhCUSQXcC-71" style="edgeStyle=orthogonalEdgeStyle;rounded=0;orthogonalLoop=1;jettySize=auto;html=1;" edge="1" parent="1" source="GG20nStti9RRhCUSQXcC-64" target="GG20nStti9RRhCUSQXcC-46">
          <mxGeometry relative="1" as="geometry" />
        </mxCell>
        <mxCell id="GG20nStti9RRhCUSQXcC-64" value="id_user" style="ellipse;whiteSpace=wrap;html=1;align=center;fontStyle=4;" vertex="1" parent="1">
          <mxGeometry x="-2360" y="-1020" width="100" height="40" as="geometry" />
        </mxCell>
        <mxCell id="GG20nStti9RRhCUSQXcC-70" style="edgeStyle=orthogonalEdgeStyle;rounded=0;orthogonalLoop=1;jettySize=auto;html=1;" edge="1" parent="1" source="GG20nStti9RRhCUSQXcC-65" target="GG20nStti9RRhCUSQXcC-46">
          <mxGeometry relative="1" as="geometry" />
        </mxCell>
        <mxCell id="GG20nStti9RRhCUSQXcC-65" value="nama" style="ellipse;whiteSpace=wrap;html=1;align=center;" vertex="1" parent="1">
          <mxGeometry x="-2440" y="-1080" width="100" height="40" as="geometry" />
        </mxCell>
        <mxCell id="GG20nStti9RRhCUSQXcC-69" style="edgeStyle=orthogonalEdgeStyle;rounded=0;orthogonalLoop=1;jettySize=auto;html=1;" edge="1" parent="1" source="GG20nStti9RRhCUSQXcC-66" target="GG20nStti9RRhCUSQXcC-46">
          <mxGeometry relative="1" as="geometry" />
        </mxCell>
        <mxCell id="GG20nStti9RRhCUSQXcC-66" value="email" style="ellipse;whiteSpace=wrap;html=1;align=center;" vertex="1" parent="1">
          <mxGeometry x="-2650" y="-1030" width="100" height="40" as="geometry" />
        </mxCell>
        <mxCell id="GG20nStti9RRhCUSQXcC-68" style="edgeStyle=orthogonalEdgeStyle;rounded=0;orthogonalLoop=1;jettySize=auto;html=1;" edge="1" parent="1" source="GG20nStti9RRhCUSQXcC-67" target="GG20nStti9RRhCUSQXcC-46">
          <mxGeometry relative="1" as="geometry" />
        </mxCell>
        <mxCell id="GG20nStti9RRhCUSQXcC-67" value="password" style="ellipse;whiteSpace=wrap;html=1;align=center;" vertex="1" parent="1">
          <mxGeometry x="-2700" y="-960" width="100" height="40" as="geometry" />
        </mxCell>
        <mxCell id="GG20nStti9RRhCUSQXcC-75" style="edgeStyle=orthogonalEdgeStyle;rounded=0;orthogonalLoop=1;jettySize=auto;html=1;" edge="1" parent="1" source="GG20nStti9RRhCUSQXcC-72" target="GG20nStti9RRhCUSQXcC-47">
          <mxGeometry relative="1" as="geometry" />
        </mxCell>
        <mxCell id="GG20nStti9RRhCUSQXcC-72" value="id_janji" style="ellipse;whiteSpace=wrap;html=1;align=center;fontStyle=4;" vertex="1" parent="1">
          <mxGeometry x="-2690" y="-510" width="100" height="40" as="geometry" />
        </mxCell>
        <mxCell id="GG20nStti9RRhCUSQXcC-76" style="edgeStyle=orthogonalEdgeStyle;rounded=0;orthogonalLoop=1;jettySize=auto;html=1;" edge="1" parent="1" source="GG20nStti9RRhCUSQXcC-73" target="GG20nStti9RRhCUSQXcC-47">
          <mxGeometry relative="1" as="geometry">
            <Array as="points">
              <mxPoint x="-2550" y="-420" />
              <mxPoint x="-2550" y="-480" />
            </Array>
          </mxGeometry>
        </mxCell>
        <mxCell id="GG20nStti9RRhCUSQXcC-73" value="tanggal" style="ellipse;whiteSpace=wrap;html=1;align=center;" vertex="1" parent="1">
          <mxGeometry x="-2670" y="-440" width="100" height="40" as="geometry" />
        </mxCell>
        <mxCell id="GG20nStti9RRhCUSQXcC-77" style="edgeStyle=orthogonalEdgeStyle;rounded=0;orthogonalLoop=1;jettySize=auto;html=1;" edge="1" parent="1" source="GG20nStti9RRhCUSQXcC-74" target="GG20nStti9RRhCUSQXcC-47">
          <mxGeometry relative="1" as="geometry" />
        </mxCell>
        <mxCell id="GG20nStti9RRhCUSQXcC-74" value="nama" style="ellipse;whiteSpace=wrap;html=1;align=center;" vertex="1" parent="1">
          <mxGeometry x="-2550" y="-405" width="100" height="40" as="geometry" />
        </mxCell>
        <mxCell id="GG20nStti9RRhCUSQXcC-79" style="edgeStyle=orthogonalEdgeStyle;rounded=0;orthogonalLoop=1;jettySize=auto;html=1;" edge="1" parent="1" source="GG20nStti9RRhCUSQXcC-78" target="GG20nStti9RRhCUSQXcC-47">
          <mxGeometry relative="1" as="geometry" />
        </mxCell>
        <mxCell id="GG20nStti9RRhCUSQXcC-78" value="lokasi" style="ellipse;whiteSpace=wrap;html=1;align=center;" vertex="1" parent="1">
          <mxGeometry x="-2440" y="-405" width="100" height="40" as="geometry" />
        </mxCell>
        <mxCell id="GG20nStti9RRhCUSQXcC-83" style="edgeStyle=orthogonalEdgeStyle;rounded=0;orthogonalLoop=1;jettySize=auto;html=1;" edge="1" parent="1" source="GG20nStti9RRhCUSQXcC-80" target="GG20nStti9RRhCUSQXcC-53">
          <mxGeometry relative="1" as="geometry" />
        </mxCell>
        <mxCell id="GG20nStti9RRhCUSQXcC-80" value="id_invitation" style="ellipse;whiteSpace=wrap;html=1;align=center;fontStyle=4;" vertex="1" parent="1">
          <mxGeometry x="-2680" y="-770" width="100" height="40" as="geometry" />
        </mxCell>
        <mxCell id="GG20nStti9RRhCUSQXcC-84" style="edgeStyle=orthogonalEdgeStyle;rounded=0;orthogonalLoop=1;jettySize=auto;html=1;" edge="1" parent="1" source="GG20nStti9RRhCUSQXcC-81" target="GG20nStti9RRhCUSQXcC-53">
          <mxGeometry relative="1" as="geometry" />
        </mxCell>
        <mxCell id="GG20nStti9RRhCUSQXcC-81" value="id_janjian" style="ellipse;whiteSpace=wrap;html=1;align=center;fontStyle=4;" vertex="1" parent="1">
          <mxGeometry x="-2690" y="-720" width="100" height="40" as="geometry" />
        </mxCell>
        <mxCell id="GG20nStti9RRhCUSQXcC-85" style="edgeStyle=orthogonalEdgeStyle;rounded=0;orthogonalLoop=1;jettySize=auto;html=1;" edge="1" parent="1" source="GG20nStti9RRhCUSQXcC-82" target="GG20nStti9RRhCUSQXcC-53">
          <mxGeometry relative="1" as="geometry">
            <Array as="points">
              <mxPoint x="-2540" y="-650" />
              <mxPoint x="-2540" y="-710" />
            </Array>
          </mxGeometry>
        </mxCell>
        <mxCell id="GG20nStti9RRhCUSQXcC-82" value="id_user" style="ellipse;whiteSpace=wrap;html=1;align=center;fontStyle=4;" vertex="1" parent="1">
          <mxGeometry x="-2690" y="-670" width="100" height="40" as="geometry" />
        </mxCell>
        <mxCell id="GG20nStti9RRhCUSQXcC-87" style="edgeStyle=orthogonalEdgeStyle;rounded=0;orthogonalLoop=1;jettySize=auto;html=1;" edge="1" parent="1" source="GG20nStti9RRhCUSQXcC-86" target="GG20nStti9RRhCUSQXcC-53">
          <mxGeometry relative="1" as="geometry" />
        </mxCell>
        <mxCell id="GG20nStti9RRhCUSQXcC-86" value="status" style="ellipse;whiteSpace=wrap;html=1;align=center;" vertex="1" parent="1">
          <mxGeometry x="-2360" y="-790" width="100" height="40" as="geometry" />
        </mxCell>
      </root>
    </mxGraphModel>
  </diagram>
</mxfile>
